<svg width="109" height="31" viewBox="0 0 109 31" fill="none" xmlns="http://www.w3.org/2000/svg">
    <g clip-path="url(#clip0_48_14)">
        <path d="M21.0357 12.4457V7.67701C21.0357 7.36858 20.8795 7.08017 20.619 6.91194L11.1359 0.753346C10.8334 0.557072 10.4427 0.557072 10.1402 0.753346L0.615052 6.93597C0.354584 7.10421 0.198303 7.39261 0.198303 7.70104V18.3479C0.198303 18.7625 0.478807 19.127 0.88153 19.2311L15.045 22.9303C15.4477 23.0344 15.7282 23.3989 15.7282 23.8135V30.2946H20.1221C20.627 30.2946 21.0357 29.886 21.0357 29.3813V21.6846C21.0357 21.27 20.7552 20.9055 20.3525 20.8013L18.381 20.2866V19.0228C18.381 18.6083 18.1005 18.2438 17.6977 18.1396L14.3637 17.2684L6.18706 15.1334C5.78434 15.0293 5.50383 14.6648 5.50383 14.2502V10.5811C5.50383 10.2726 5.66011 9.98422 5.92058 9.81399L10.1402 7.07617C10.4427 6.87989 10.8334 6.87989 11.1359 7.07617L15.7282 10.0563L14.7825 10.6732C14.524 10.8414 14.3658 11.1298 14.3658 11.4383V17.2684L20.621 13.2087C20.8815 13.0405 21.0377 12.7521 21.0377 12.4417L21.0357 12.4457Z" fill="#083959"/>
        <path d="M0.198303 29.3853C0.198303 29.89 0.607037 30.2986 1.11194 30.2986H5.50584V22.4116L0.198303 21.0256V29.3853Z" fill="#EE382A"/>
        <path d="M37.9647 24.4134H27.8426C28.1331 26.6064 29.4274 27.3715 31.4631 27.3715C33.2603 27.3715 34.5286 26.5003 34.5286 25.4689H37.8064C37.8064 28.3749 35.5604 30.3557 31.437 30.3557C26.4681 30.3557 24.0377 27.9523 24.0377 23.3559C24.0377 18.7595 26.4961 16.3561 30.9622 16.3561C35.9571 16.3561 37.9647 18.8656 37.9647 23.8846V24.4134ZM34.3983 21.8518C34.1078 20.1354 32.8656 19.3423 31.1485 19.3423C29.6418 19.3423 28.4256 20.1875 27.9768 21.8518H34.3983Z" fill="#083959"/>
        <path d="M50.0685 30.3577V23.41C50.0685 21.3491 49.4614 20.1074 47.029 20.1074C44.8611 20.1074 43.6991 21.3491 43.6991 23.7525V30.3557H40.0786V17.1492H43.6991V18.9457C44.5706 17.5718 45.9992 16.7527 48.113 16.7527C51.7856 16.7527 53.689 18.3649 53.689 23.0655V30.3557H50.0685V30.3577Z" fill="#083959"/>
        <path d="M57.6782 20.0032H54.7709V16.7547H57.6782L59.0787 11.4713H61.2726V16.7547H67.7202V20.0032H61.2726V24.7839C61.2726 26.0256 61.5631 27.003 62.8855 27.003C63.9154 27.003 64.6567 26.5283 64.6567 24.9421H67.9065C67.9065 29.0358 66.0031 30.3577 62.7272 30.3577C59.4513 30.3577 57.6802 28.7454 57.6802 25.1544V20.0032H57.6782Z" fill="#083959"/>
        <path d="M75.991 19.3423C74.6967 19.3423 72.9255 19.4745 72.9255 21.3231H69.6757C69.6757 17.704 72.1061 16.3561 76.0451 16.3561C80.5632 16.3561 82.7832 17.6239 82.7832 22.1682V29.9611H79.1888V28.1907C78.6598 29.4845 77.4436 30.3577 74.6426 30.3577C71.4449 30.3577 68.9344 29.4865 68.9344 26.1578C68.9344 23.436 71.0482 22.4066 74.4843 22.0641L79.1888 21.6415V21.5894C79.1888 19.5546 77.3134 19.3443 75.991 19.3443V19.3423ZM75.1736 24.5456C73.6929 24.6778 72.6891 25.0483 72.6891 26.1037C72.6891 26.9489 73.5086 27.3715 75.2257 27.3715C77.8424 27.3715 79.0846 26.3421 79.1888 25.4689V24.149L75.1716 24.5456H75.1736Z" fill="#083959"/>
        <path d="M85.1615 30.3577V10.546H88.782V30.3577H85.1615Z" fill="#083959"/>
    </g>
    <defs>
        <clipPath id="clip0_48_14">
            <rect width="108" height="29.6934" fill="#083959" transform="translate(0.198303 0.605103)"/>
        </clipPath>
    </defs>
</svg>
