<svg width="1440" height="968" viewBox="0 0 1440 968" fill="none" xmlns="http://www.w3.org/2000/svg">
    <path fill-rule="evenodd" clip-rule="evenodd" d="M1420.88 898.128C1415.36 898.128 1410.88 902.605 1410.88 908.128V966.415C1410.88 966.785 1410.58 967.085 1410.21 967.085C1409.84 967.085 1409.54 966.785 1409.54 966.415V908.128C1409.54 902.605 1405.06 898.128 1399.54 898.128H1366.62C1361.09 898.128 1356.62 902.605 1356.62 908.128V964.711C1356.62 965.081 1356.32 965.381 1355.95 965.381C1355.58 965.381 1355.28 965.081 1355.28 964.711V908.128C1355.28 902.605 1350.8 898.128 1345.28 898.128H1312.35C1306.83 898.128 1302.35 902.605 1302.35 908.128V964.711C1302.35 965.081 1302.05 965.381 1301.68 965.381C1301.31 965.381 1301.01 965.081 1301.01 964.711V908.128C1301.01 902.605 1296.53 898.128 1291.01 898.128H1258.09C1252.56 898.128 1248.09 902.605 1248.09 908.128V964.711C1248.09 965.081 1247.79 965.381 1247.42 965.381C1247.05 965.381 1246.75 965.081 1246.75 964.711V908.128C1246.75 902.605 1242.27 898.128 1236.75 898.128H1203.82C1198.3 898.128 1193.82 902.605 1193.82 908.128V964.711C1193.82 965.081 1193.52 965.381 1193.15 965.381C1192.78 965.381 1192.48 965.081 1192.48 964.711V908.128C1192.48 902.605 1188.01 898.128 1182.48 898.128H1149.56C1144.03 898.128 1139.56 902.605 1139.56 908.128V964.711C1139.56 965.081 1139.26 965.381 1138.89 965.381C1138.52 965.381 1138.22 965.081 1138.22 964.711V908.128C1138.22 902.605 1133.74 898.128 1128.22 898.128H1095.29C1089.77 898.128 1085.29 902.605 1085.29 908.128V964.711C1085.29 965.081 1084.99 965.381 1084.62 965.381C1084.25 965.381 1083.95 965.081 1083.95 964.711V908.128C1083.95 902.605 1079.48 898.128 1073.95 898.128H1041.03C1035.51 898.128 1031.03 902.605 1031.03 908.128V964.711C1031.03 965.081 1030.73 965.381 1030.36 965.381C1029.99 965.381 1029.69 965.081 1029.69 964.711V908.128C1029.69 902.605 1025.21 898.128 1019.69 898.128H986.764C981.241 898.128 976.764 902.605 976.764 908.128V964.711C976.764 965.081 976.464 965.381 976.093 965.381C975.723 965.381 975.423 965.081 975.423 964.711V908.128C975.423 902.605 970.946 898.128 965.423 898.128H932.498C926.975 898.128 922.498 902.605 922.498 908.128V964.711C922.498 965.081 922.198 965.381 921.828 965.381C921.458 965.381 921.158 965.081 921.158 964.711V908.128C921.158 902.605 916.68 898.128 911.158 898.128H878.234C872.711 898.128 868.234 902.605 868.234 908.128V964.711C868.234 965.081 867.934 965.381 867.564 965.381C867.194 965.381 866.893 965.081 866.893 964.711V908.128C866.893 902.605 862.416 898.128 856.893 898.128H823.969C818.446 898.128 813.969 902.605 813.969 908.128V964.711C813.969 965.081 813.669 965.381 813.298 965.381C812.928 965.381 812.628 965.081 812.628 964.711V908.128C812.628 902.605 808.151 898.128 802.628 898.128H769.705C764.182 898.128 759.705 902.605 759.705 908.128V964.711C759.705 965.081 759.404 965.381 759.034 965.381C758.664 965.381 758.364 965.081 758.364 964.711V908.128C758.364 902.605 753.887 898.128 748.364 898.128H715.439C709.916 898.128 705.439 902.605 705.439 908.128V964.711C705.439 965.081 705.139 965.381 704.769 965.381C704.398 965.381 704.098 965.081 704.098 964.711V908.128C704.098 902.605 699.621 898.128 694.098 898.128H661.175C655.652 898.128 651.175 902.605 651.175 908.128V964.711C651.175 965.081 650.875 965.381 650.505 965.381C650.134 965.381 649.834 965.081 649.834 964.711V908.128C649.834 902.605 645.357 898.128 639.834 898.128H606.91C601.387 898.128 596.91 902.605 596.91 908.128V964.711C596.91 965.081 596.609 965.381 596.239 965.381C595.869 965.381 595.569 965.081 595.569 964.711V908.128C595.569 902.605 591.092 898.128 585.569 898.128H552.645C547.123 898.128 542.645 902.605 542.645 908.128V964.711C542.645 965.081 542.345 965.381 541.975 965.381C541.605 965.381 541.305 965.081 541.305 964.711V908.128C541.305 902.605 536.828 898.128 531.305 898.128H498.38C492.857 898.128 488.38 902.605 488.38 908.128V964.711C488.38 965.081 488.08 965.381 487.709 965.381C487.339 965.381 487.039 965.081 487.039 964.711V908.128C487.039 902.605 482.562 898.128 477.039 898.128H444.117C438.594 898.128 434.117 902.605 434.117 908.128V964.711C434.117 965.081 433.817 965.381 433.447 965.381C433.076 965.381 432.776 965.081 432.776 964.711V908.128C432.776 902.605 428.299 898.128 422.776 898.128H389.852C384.329 898.128 379.852 902.605 379.852 908.128V964.711C379.852 965.081 379.552 965.381 379.181 965.381C378.811 965.381 378.511 965.081 378.511 964.711V908.128C378.511 902.605 374.034 898.128 368.511 898.128H335.587C330.065 898.128 325.587 902.605 325.587 908.128V964.711C325.587 965.081 325.287 965.381 324.917 965.381C324.547 965.381 324.247 965.081 324.247 964.711V908.128C324.247 902.605 319.77 898.128 314.247 898.128H281.323C275.8 898.128 271.323 902.605 271.323 908.128V964.711C271.323 965.081 271.023 965.381 270.653 965.381C270.283 965.381 269.983 965.081 269.983 964.711V908.128C269.983 902.605 265.505 898.128 259.983 898.128H227.058C221.535 898.128 217.058 902.605 217.058 908.128V964.711C217.058 965.081 216.758 965.381 216.387 965.381C216.017 965.381 215.717 965.081 215.717 964.711V908.128C215.717 902.605 211.24 898.128 205.717 898.128H172.794C167.271 898.128 162.794 902.605 162.794 908.128V964.711C162.794 965.081 162.494 965.381 162.123 965.381C161.753 965.381 161.453 965.081 161.453 964.711V908.128C161.453 902.605 156.976 898.128 151.453 898.128H118.528C113.005 898.128 108.528 902.605 108.528 908.128V964.711C108.528 965.081 108.228 965.381 107.858 965.381C107.488 965.381 107.188 965.081 107.188 964.711V908.128C107.188 902.605 102.71 898.128 97.1875 898.128H64.2601C58.7373 898.128 54.2601 902.605 54.2601 908.128V964.711C54.2601 965.081 53.96 965.381 53.5897 965.381C53.2195 965.381 52.9193 965.081 52.9193 964.711V908.128C52.9193 902.605 48.4421 898.128 42.9193 898.128H0.851807C0.381348 898.128 0 897.747 0 897.276C0 896.806 0.381348 896.424 0.851807 896.424H42.9207C48.4435 896.424 52.9207 891.947 52.9207 886.424V839.173C52.9207 833.65 48.4435 829.173 42.9207 829.173H0.851807C0.381348 829.173 0 828.792 0 828.321C0 827.851 0.381348 827.469 0.851807 827.469H42.9207C48.4435 827.469 52.9207 822.992 52.9207 817.469V770.218C52.9207 764.695 48.4435 760.218 42.9207 760.218H0.851807C0.381348 760.218 0 759.837 0 759.366C0 758.896 0.381348 758.514 0.851807 758.514H42.9207C48.4435 758.514 52.9207 754.037 52.9207 748.514V701.261C52.9207 695.738 48.4435 691.261 42.9207 691.261H0.851807C0.381348 691.261 0 690.88 0 690.409C0 689.939 0.381348 689.557 0.851807 689.557H42.9207C48.4435 689.557 52.9207 685.08 52.9207 679.557V632.306C52.9207 626.783 48.4435 622.306 42.9207 622.306H0.851807C0.381348 622.306 0 621.925 0 621.454C0 620.984 0.381348 620.602 0.851807 620.602H42.9207C48.4435 620.602 52.9207 616.125 52.9207 610.602V563.349C52.9207 557.827 48.4435 553.349 42.9207 553.349H0.851807C0.381348 553.349 0 552.968 0 552.497C0 552.027 0.381348 551.646 0.851807 551.646H42.9207C48.4435 551.646 52.9207 547.168 52.9207 541.646V494.394C52.9207 488.871 48.4435 484.394 42.9207 484.394H0.851807C0.381348 484.394 0 484.013 0 483.542C0 483.072 0.381348 482.691 0.851807 482.691H42.9207C48.4435 482.691 52.9207 478.213 52.9207 472.691V425.438C52.9207 419.915 48.4435 415.438 42.9207 415.438H0.851807C0.381348 415.438 0 415.056 0 414.586C0 414.115 0.381348 413.734 0.851807 413.734H42.9207C48.4435 413.734 52.9207 409.257 52.9207 403.734V356.482C52.9207 350.96 48.4435 346.482 42.9207 346.482H0.851807C0.381348 346.482 0 346.101 0 345.631C0 345.16 0.381348 344.779 0.851807 344.779H42.9207C48.4435 344.779 52.9207 340.302 52.9207 334.779V287.526C52.9207 282.003 48.4435 277.526 42.9207 277.526H0.851807C0.381348 277.526 0 277.144 0 276.674C0 276.203 0.381348 275.822 0.851807 275.822H42.9207C48.4435 275.822 52.9207 271.345 52.9207 265.822V218.571C52.9207 213.048 48.4435 208.571 42.9207 208.571H0.851929C0.381348 208.571 0 208.189 0 207.719C0 207.248 0.381348 206.867 0.851929 206.867H42.9207C48.4435 206.867 52.9207 202.39 52.9207 196.867V149.616C52.9207 144.093 48.4435 139.616 42.9207 139.616H0.851929C0.381348 139.616 0 139.234 0 138.764C0 138.293 0.381348 137.912 0.851929 137.912H42.9207C48.4435 137.912 52.9207 133.435 52.9207 127.912V80.6588C52.9207 75.1359 48.4435 70.6588 42.9207 70.6588H0.851807C0.381348 70.6588 0 70.2774 0 69.8069C0 69.3364 0.381348 68.955 0.851807 68.955H42.9207C48.4435 68.955 52.9207 64.4779 52.9207 58.955L52.9207 0.670349C52.9207 0.30011 53.2208 -6.10352e-05 53.5911 -6.10352e-05C53.9613 -6.10352e-05 54.2615 0.30011 54.2615 0.670349L54.2615 58.955C54.2615 64.4779 58.7386 68.955 64.2615 68.955H97.1888C102.712 68.955 107.189 64.4779 107.189 58.955L107.189 0.670349C107.189 0.30011 107.489 -6.10352e-05 107.859 -6.10352e-05C108.229 -6.10352e-05 108.53 0.30011 108.53 0.670349L108.53 58.955C108.53 64.4779 113.007 68.955 118.53 68.955H151.454C156.977 68.955 161.454 64.4779 161.454 58.955L161.454 0.670349C161.454 0.30011 161.755 -6.10352e-05 162.125 -6.10352e-05C162.495 -6.10352e-05 162.795 0.30011 162.795 0.670349L162.795 58.955C162.795 64.4779 167.272 68.955 172.795 68.955H205.718C211.241 68.955 215.718 64.4779 215.718 58.955L215.718 0.670349C215.718 0.30011 216.019 -6.10352e-05 216.389 -6.10352e-05C216.759 -6.10352e-05 217.059 0.30011 217.059 0.670349L217.059 58.955C217.059 64.4779 221.536 68.955 227.059 68.955H259.984C265.507 68.955 269.984 64.4779 269.984 58.955L269.984 0.670349C269.984 0.30011 270.284 -6.10352e-05 270.654 -6.10352e-05C271.025 -6.10352e-05 271.325 0.30011 271.325 0.670349L271.325 58.955C271.325 64.4779 275.802 68.955 281.325 68.955H314.248C319.771 68.955 324.248 64.4779 324.248 58.955L324.248 0.670349C324.248 0.30011 324.548 -6.10352e-05 324.918 -6.10352e-05C325.289 -6.10352e-05 325.589 0.30011 325.589 0.670349L325.589 58.955C325.589 64.4779 330.066 68.955 335.589 68.955H368.512C374.035 68.955 378.512 64.4779 378.512 58.955L378.512 0.670349C378.512 0.30011 378.812 -6.10352e-05 379.183 -6.10352e-05C379.553 -6.10352e-05 379.853 0.30011 379.853 0.670349L379.853 58.955C379.853 64.4779 384.33 68.955 389.853 68.955H422.778C428.301 68.955 432.778 64.4779 432.778 58.955V0.670349C432.778 0.30011 433.078 -6.10352e-05 433.448 -6.10352e-05C433.818 -6.10352e-05 434.119 0.30011 434.119 0.670349V58.955C434.119 64.4779 438.596 68.955 444.119 68.955H477.04C482.563 68.955 487.04 64.4779 487.04 58.955V0.670349C487.04 0.30011 487.341 -6.10352e-05 487.711 -6.10352e-05C488.081 -6.10352e-05 488.381 0.30011 488.381 0.670349V58.955C488.381 64.4779 492.858 68.955 498.381 68.955H531.306C536.829 68.955 541.306 64.4779 541.306 58.955V0.670349C541.306 0.30011 541.606 -6.10352e-05 541.976 -6.10352e-05C542.347 -6.10352e-05 542.647 0.30011 542.647 0.670349V58.955C542.647 64.4779 547.124 68.955 552.647 68.955H585.57C591.093 68.955 595.57 64.4779 595.57 58.955V0.670349C595.57 0.30011 595.87 -6.10352e-05 596.24 -6.10352e-05C596.611 -6.10352e-05 596.911 0.30011 596.911 0.670349V58.955C596.911 64.4779 601.388 68.955 606.911 68.955H639.836C645.358 68.955 649.836 64.4779 649.836 58.955V0.670349C649.836 0.30011 650.136 -6.10352e-05 650.506 -6.10352e-05C650.876 -6.10352e-05 651.176 0.30011 651.176 0.670349V58.955C651.176 64.4779 655.653 68.955 661.176 68.955H694.1C699.622 68.955 704.1 64.4779 704.1 58.955V0.670349C704.1 0.30011 704.4 -6.10352e-05 704.77 -6.10352e-05C705.14 -6.10352e-05 705.44 0.30011 705.44 0.670349V58.955C705.44 64.4779 709.918 68.955 715.44 68.955H748.365C753.888 68.955 758.365 64.4779 758.365 58.955V0.670349C758.365 0.30011 758.665 -6.10352e-05 759.036 -6.10352e-05C759.406 -6.10352e-05 759.706 0.30011 759.706 0.670349V58.955C759.706 64.4779 764.183 68.955 769.706 68.955H802.629C808.152 68.955 812.629 64.4779 812.629 58.955V0.670349C812.629 0.30011 812.929 -6.10352e-05 813.3 -6.10352e-05C813.67 -6.10352e-05 813.97 0.30011 813.97 0.670349V58.955C813.97 64.4779 818.447 68.955 823.97 68.955H856.895C862.418 68.955 866.895 64.4779 866.895 58.955V0.670349C866.895 0.30011 867.195 -6.10352e-05 867.565 -6.10352e-05C867.935 -6.10352e-05 868.236 0.30011 868.236 0.670349V58.955C868.236 64.4779 872.713 68.955 878.236 68.955H911.159C916.682 68.955 921.159 64.4779 921.159 58.955V0.670349C921.159 0.30011 921.459 -6.10352e-05 921.829 -6.10352e-05C922.2 -6.10352e-05 922.5 0.30011 922.5 0.670349V58.955C922.5 64.4779 926.977 68.955 932.5 68.955H965.424C970.947 68.955 975.424 64.4779 975.424 58.955V0.670349C975.424 0.30011 975.724 -6.10352e-05 976.095 -6.10352e-05C976.465 -6.10352e-05 976.765 0.30011 976.765 0.670349V58.955C976.765 64.4779 981.242 68.955 986.765 68.955H1019.69C1025.21 68.955 1029.69 64.4779 1029.69 58.955V0.670349C1029.69 0.30011 1029.99 -6.10352e-05 1030.36 -6.10352e-05C1030.73 -6.10352e-05 1031.03 0.30011 1031.03 0.670349V58.955C1031.03 64.4779 1035.51 68.955 1041.03 68.955H1073.95C1079.48 68.955 1083.95 64.4779 1083.95 58.955V0.670349C1083.95 0.30011 1084.25 -6.10352e-05 1084.62 -6.10352e-05C1084.99 -6.10352e-05 1085.29 0.30011 1085.29 0.670349V58.955C1085.29 64.4779 1089.77 68.955 1095.29 68.955H1128.22C1133.74 68.955 1138.22 64.4779 1138.22 58.955V0.670349C1138.22 0.30011 1138.52 -6.10352e-05 1138.89 -6.10352e-05C1139.26 -6.10352e-05 1139.56 0.30011 1139.56 0.670349V58.955C1139.56 64.4779 1144.04 68.955 1149.56 68.955H1182.48C1188.01 68.955 1192.48 64.4779 1192.48 58.955V0.670349C1192.48 0.30011 1192.78 -6.10352e-05 1193.15 -6.10352e-05C1193.52 -6.10352e-05 1193.82 0.30011 1193.82 0.670349V58.955C1193.82 64.4779 1198.3 68.955 1203.82 68.955H1236.75C1242.27 68.955 1246.75 64.4779 1246.75 58.955V0.670349C1246.75 0.30011 1247.05 -6.10352e-05 1247.42 -6.10352e-05C1247.79 -6.10352e-05 1248.09 0.30011 1248.09 0.670349V58.955C1248.09 64.4779 1252.57 68.955 1258.09 68.955H1291.01C1296.54 68.955 1301.01 64.4779 1301.01 58.955V0.670349C1301.01 0.30011 1301.31 -6.10352e-05 1301.68 -6.10352e-05C1302.05 -6.10352e-05 1302.35 0.30011 1302.35 0.670349V58.955C1302.35 64.4779 1306.83 68.955 1312.35 68.955H1345.28C1350.8 68.955 1355.28 64.4779 1355.28 58.955V0.670349C1355.28 0.30011 1355.58 -6.10352e-05 1355.95 -6.10352e-05C1356.32 -6.10352e-05 1356.62 0.30011 1356.62 0.670349V58.955C1356.62 64.4779 1361.1 68.955 1366.62 68.955H1399.54C1405.06 68.955 1409.54 64.4779 1409.54 58.955L1409.54 2.37415C1409.54 2.00391 1409.84 1.70374 1410.21 1.70374C1410.58 1.70374 1410.88 2.00391 1410.88 2.37415L1410.88 58.955C1410.88 64.4779 1415.36 68.955 1420.88 68.955H1439.15C1439.62 68.955 1440 69.3364 1440 69.8069C1440 70.2774 1439.62 70.6588 1439.15 70.6588H1420.88C1415.36 70.6588 1410.88 75.1359 1410.88 80.6588V127.912C1410.88 133.435 1415.36 137.912 1420.88 137.912H1439.15C1439.62 137.912 1440 138.293 1440 138.764C1440 139.234 1439.62 139.616 1439.15 139.616H1420.88C1415.36 139.616 1410.88 144.093 1410.88 149.616V196.867C1410.88 202.39 1415.36 206.867 1420.88 206.867H1439.15C1439.62 206.867 1440 207.248 1440 207.719C1440 208.189 1439.62 208.571 1439.15 208.571H1420.88C1415.36 208.571 1410.88 213.048 1410.88 218.571V265.822C1410.88 271.345 1415.36 275.822 1420.88 275.822H1439.15C1439.62 275.822 1440 276.203 1440 276.674C1440 277.144 1439.62 277.526 1439.15 277.526H1420.88C1415.36 277.526 1410.88 282.003 1410.88 287.526V334.779C1410.88 340.302 1415.36 344.779 1420.88 344.779H1439.15C1439.62 344.779 1440 345.16 1440 345.631C1440 346.101 1439.62 346.482 1439.15 346.482H1420.88C1415.36 346.482 1410.88 350.96 1410.88 356.482V403.734C1410.88 409.257 1415.36 413.734 1420.88 413.734H1439.15C1439.62 413.734 1440 414.115 1440 414.586C1440 415.056 1439.62 415.438 1439.15 415.438H1420.88C1415.36 415.438 1410.88 419.915 1410.88 425.438V472.691C1410.88 478.213 1415.36 482.691 1420.88 482.691H1439.15C1439.62 482.691 1440 483.072 1440 483.542C1440 484.013 1439.62 484.394 1439.15 484.394H1420.88C1415.36 484.394 1410.88 488.871 1410.88 494.394V541.646C1410.88 547.168 1415.36 551.646 1420.88 551.646H1439.15C1439.62 551.646 1440 552.027 1440 552.497C1440 552.968 1439.62 553.349 1439.15 553.349H1420.88C1415.36 553.349 1410.88 557.827 1410.88 563.349V610.602C1410.88 616.125 1415.36 620.602 1420.88 620.602H1439.15C1439.62 620.602 1440 620.984 1440 621.454C1440 621.925 1439.62 622.306 1439.15 622.306H1420.88C1415.36 622.306 1410.88 626.783 1410.88 632.306V679.557C1410.88 685.08 1415.36 689.557 1420.88 689.557H1439.15C1439.62 689.557 1440 689.939 1440 690.409C1440 690.88 1439.62 691.261 1439.15 691.261H1420.88C1415.36 691.261 1410.88 695.738 1410.88 701.261V748.514C1410.88 754.037 1415.36 758.514 1420.88 758.514H1439.15C1439.62 758.514 1440 758.896 1440 759.366C1440 759.837 1439.62 760.218 1439.15 760.218H1420.88C1415.36 760.218 1410.88 764.695 1410.88 770.218V817.469C1410.88 822.992 1415.36 827.469 1420.88 827.469H1439.15C1439.62 827.469 1440 827.851 1440 828.321C1440 828.792 1439.62 829.173 1439.15 829.173H1420.88C1415.36 829.173 1410.88 833.65 1410.88 839.173V886.424C1410.88 891.947 1415.36 896.424 1420.88 896.424H1439.15C1439.62 896.424 1440 896.806 1440 897.276C1440 897.747 1439.62 898.128 1439.15 898.128H1420.88ZM1409.54 886.424C1409.54 891.947 1405.06 896.424 1399.54 896.424H1366.62C1361.09 896.424 1356.62 891.947 1356.62 886.424V839.173C1356.62 833.65 1361.09 829.173 1366.62 829.173H1399.54C1405.06 829.173 1409.54 833.65 1409.54 839.173V886.424ZM1409.54 817.469C1409.54 822.992 1405.06 827.469 1399.54 827.469H1366.62C1361.09 827.469 1356.62 822.992 1356.62 817.469V770.218C1356.62 764.695 1361.09 760.218 1366.62 760.218H1399.54C1405.06 760.218 1409.54 764.695 1409.54 770.218V817.469ZM1409.54 748.514C1409.54 754.037 1405.06 758.514 1399.54 758.514H1366.62C1361.09 758.514 1356.62 754.037 1356.62 748.514V701.261C1356.62 695.738 1361.09 691.261 1366.62 691.261H1399.54C1405.06 691.261 1409.54 695.738 1409.54 701.261V748.514ZM1409.54 679.557C1409.54 685.08 1405.06 689.557 1399.54 689.557H1366.62C1361.09 689.557 1356.62 685.08 1356.62 679.557V632.306C1356.62 626.783 1361.09 622.306 1366.62 622.306H1399.54C1405.06 622.306 1409.54 626.783 1409.54 632.306V679.557ZM1409.54 610.602C1409.54 616.125 1405.06 620.602 1399.54 620.602H1366.62C1361.09 620.602 1356.62 616.125 1356.62 610.602V563.349C1356.62 557.827 1361.09 553.349 1366.62 553.349H1399.54C1405.06 553.349 1409.54 557.827 1409.54 563.349V610.602ZM1409.54 541.646C1409.54 547.168 1405.06 551.646 1399.54 551.646H1366.62C1361.09 551.646 1356.62 547.168 1356.62 541.646V494.394C1356.62 488.871 1361.09 484.394 1366.62 484.394H1399.54C1405.06 484.394 1409.54 488.871 1409.54 494.394V541.646ZM1409.54 472.691C1409.54 478.213 1405.06 482.691 1399.54 482.691H1366.62C1361.09 482.691 1356.62 478.213 1356.62 472.691V425.438C1356.62 419.915 1361.09 415.438 1366.62 415.438H1399.54C1405.06 415.438 1409.54 419.915 1409.54 425.438V472.691ZM1409.54 403.734C1409.54 409.257 1405.06 413.734 1399.54 413.734H1366.62C1361.09 413.734 1356.62 409.257 1356.62 403.734V356.482C1356.62 350.96 1361.09 346.482 1366.62 346.482H1399.54C1405.06 346.482 1409.54 350.96 1409.54 356.482V403.734ZM1409.54 334.779C1409.54 340.302 1405.06 344.779 1399.54 344.779H1366.62C1361.09 344.779 1356.62 340.302 1356.62 334.779V287.526C1356.62 282.003 1361.09 277.526 1366.62 277.526H1399.54C1405.06 277.526 1409.54 282.003 1409.54 287.526V334.779ZM1409.54 265.822C1409.54 271.345 1405.06 275.822 1399.54 275.822H1366.62C1361.09 275.822 1356.62 271.345 1356.62 265.822V218.571C1356.62 213.048 1361.09 208.571 1366.62 208.571H1399.54C1405.06 208.571 1409.54 213.048 1409.54 218.571V265.822ZM1409.54 196.867C1409.54 202.39 1405.06 206.867 1399.54 206.867H1366.62C1361.09 206.867 1356.62 202.39 1356.62 196.867V149.616C1356.62 144.093 1361.09 139.616 1366.62 139.616H1399.54C1405.06 139.616 1409.54 144.093 1409.54 149.616V196.867ZM1409.54 127.912C1409.54 133.435 1405.06 137.912 1399.54 137.912H1366.62C1361.09 137.912 1356.62 133.435 1356.62 127.912V80.6588C1356.62 75.1359 1361.09 70.6588 1366.62 70.6588H1399.54C1405.06 70.6588 1409.54 75.1359 1409.54 80.6588V127.912ZM1302.35 886.424C1302.35 891.947 1306.83 896.424 1312.35 896.424H1345.28C1350.8 896.424 1355.28 891.947 1355.28 886.424V839.173C1355.28 833.65 1350.8 829.173 1345.28 829.173H1312.35C1306.83 829.173 1302.35 833.65 1302.35 839.173V886.424ZM1302.35 817.469C1302.35 822.992 1306.83 827.469 1312.35 827.469H1345.28C1350.8 827.469 1355.28 822.992 1355.28 817.469V770.218C1355.28 764.695 1350.8 760.218 1345.28 760.218H1312.35C1306.83 760.218 1302.35 764.695 1302.35 770.218V817.469ZM1302.35 748.514C1302.35 754.037 1306.83 758.514 1312.35 758.514H1345.28C1350.8 758.514 1355.28 754.037 1355.28 748.514V701.261C1355.28 695.738 1350.8 691.261 1345.28 691.261H1312.35C1306.83 691.261 1302.35 695.738 1302.35 701.261V748.514ZM1302.35 679.557C1302.35 685.08 1306.83 689.557 1312.35 689.557H1345.28C1350.8 689.557 1355.28 685.08 1355.28 679.557V632.306C1355.28 626.783 1350.8 622.306 1345.28 622.306H1312.35C1306.83 622.306 1302.35 626.783 1302.35 632.306V679.557ZM1302.35 610.602C1302.35 616.125 1306.83 620.602 1312.35 620.602H1345.28C1350.8 620.602 1355.28 616.125 1355.28 610.602V563.349C1355.28 557.827 1350.8 553.349 1345.28 553.349H1312.35C1306.83 553.349 1302.35 557.827 1302.35 563.349V610.602ZM1302.35 541.646C1302.35 547.168 1306.83 551.646 1312.35 551.646H1345.28C1350.8 551.646 1355.28 547.168 1355.28 541.646V494.394C1355.28 488.871 1350.8 484.394 1345.28 484.394H1312.35C1306.83 484.394 1302.35 488.871 1302.35 494.394V541.646ZM1302.35 472.691C1302.35 478.213 1306.83 482.691 1312.35 482.691H1345.28C1350.8 482.691 1355.28 478.213 1355.28 472.691V425.438C1355.28 419.915 1350.8 415.438 1345.28 415.438H1312.35C1306.83 415.438 1302.35 419.915 1302.35 425.438V472.691ZM1302.35 403.734C1302.35 409.257 1306.83 413.734 1312.35 413.734H1345.28C1350.8 413.734 1355.28 409.257 1355.28 403.734V356.482C1355.28 350.96 1350.8 346.482 1345.28 346.482H1312.35C1306.83 346.482 1302.35 350.96 1302.35 356.482V403.734ZM1302.35 334.779C1302.35 340.302 1306.83 344.779 1312.35 344.779H1345.28C1350.8 344.779 1355.28 340.302 1355.28 334.779V287.526C1355.28 282.003 1350.8 277.526 1345.28 277.526H1312.35C1306.83 277.526 1302.35 282.003 1302.35 287.526V334.779ZM1302.35 265.822C1302.35 271.345 1306.83 275.822 1312.35 275.822H1345.28C1350.8 275.822 1355.28 271.345 1355.28 265.822V218.571C1355.28 213.048 1350.8 208.571 1345.28 208.571H1312.35C1306.83 208.571 1302.35 213.048 1302.35 218.571V265.822ZM1302.35 196.867C1302.35 202.39 1306.83 206.867 1312.35 206.867H1345.28C1350.8 206.867 1355.28 202.39 1355.28 196.867V149.616C1355.28 144.093 1350.8 139.616 1345.28 139.616H1312.35C1306.83 139.616 1302.35 144.093 1302.35 149.616V196.867ZM1302.35 127.912C1302.35 133.435 1306.83 137.912 1312.35 137.912H1345.28C1350.8 137.912 1355.28 133.435 1355.28 127.912V80.6588C1355.28 75.1359 1350.8 70.6588 1345.28 70.6588H1312.35C1306.83 70.6588 1302.35 75.1359 1302.35 80.6588V127.912ZM1291.01 70.6588C1296.54 70.6588 1301.01 75.1359 1301.01 80.6588V127.912C1301.01 133.435 1296.54 137.912 1291.01 137.912H1258.09C1252.57 137.912 1248.09 133.435 1248.09 127.912V80.6588C1248.09 75.1359 1252.57 70.6588 1258.09 70.6588H1291.01ZM1291.01 139.616C1296.54 139.616 1301.01 144.093 1301.01 149.616V196.867C1301.01 202.39 1296.54 206.867 1291.01 206.867H1258.09C1252.57 206.867 1248.09 202.39 1248.09 196.867V149.616C1248.09 144.093 1252.57 139.616 1258.09 139.616H1291.01ZM1291.01 208.571C1296.54 208.571 1301.01 213.048 1301.01 218.571V265.822C1301.01 271.345 1296.54 275.822 1291.01 275.822H1258.09C1252.57 275.822 1248.09 271.345 1248.09 265.822V218.571C1248.09 213.048 1252.57 208.571 1258.09 208.571H1291.01ZM1291.01 277.526C1296.54 277.526 1301.01 282.003 1301.01 287.526V334.779C1301.01 340.302 1296.54 344.779 1291.01 344.779H1258.09C1252.57 344.779 1248.09 340.302 1248.09 334.779V287.526C1248.09 282.003 1252.57 277.526 1258.09 277.526H1291.01ZM1291.01 346.482C1296.54 346.482 1301.01 350.96 1301.01 356.482V403.734C1301.01 409.257 1296.54 413.734 1291.01 413.734H1258.09C1252.57 413.734 1248.09 409.257 1248.09 403.734V356.482C1248.09 350.96 1252.57 346.482 1258.09 346.482H1291.01ZM1291.01 415.438C1296.54 415.438 1301.01 419.915 1301.01 425.438V472.691C1301.01 478.213 1296.54 482.691 1291.01 482.691H1258.09C1252.57 482.691 1248.09 478.213 1248.09 472.691V425.438C1248.09 419.915 1252.57 415.438 1258.09 415.438H1291.01ZM1291.01 484.394C1296.54 484.394 1301.01 488.871 1301.01 494.394V541.646C1301.01 547.168 1296.54 551.646 1291.01 551.646H1258.09C1252.57 551.646 1248.09 547.168 1248.09 541.646V494.394C1248.09 488.871 1252.57 484.394 1258.09 484.394H1291.01ZM1291.01 553.349C1296.54 553.349 1301.01 557.827 1301.01 563.349V610.602C1301.01 616.125 1296.54 620.602 1291.01 620.602H1258.09C1252.57 620.602 1248.09 616.125 1248.09 610.602V563.349C1248.09 557.827 1252.57 553.349 1258.09 553.349H1291.01ZM1291.01 622.306C1296.54 622.306 1301.01 626.783 1301.01 632.306V679.557C1301.01 685.08 1296.54 689.557 1291.01 689.557H1258.09C1252.57 689.557 1248.09 685.08 1248.09 679.557V632.306C1248.09 626.783 1252.57 622.306 1258.09 622.306H1291.01ZM1291.01 691.261C1296.54 691.261 1301.01 695.738 1301.01 701.261V748.514C1301.01 754.037 1296.54 758.514 1291.01 758.514H1258.09C1252.57 758.514 1248.09 754.037 1248.09 748.514V701.261C1248.09 695.738 1252.57 691.261 1258.09 691.261H1291.01ZM1291.01 760.218C1296.54 760.218 1301.01 764.695 1301.01 770.218V817.469C1301.01 822.992 1296.54 827.469 1291.01 827.469H1258.09C1252.57 827.469 1248.09 822.992 1248.09 817.469V770.218C1248.09 764.695 1252.57 760.218 1258.09 760.218H1291.01ZM1291.01 829.173C1296.54 829.173 1301.01 833.65 1301.01 839.173V886.424C1301.01 891.947 1296.54 896.424 1291.01 896.424H1258.09C1252.57 896.424 1248.09 891.947 1248.09 886.424V839.173C1248.09 833.65 1252.57 829.173 1258.09 829.173H1291.01ZM1193.82 886.424C1193.82 891.947 1198.3 896.424 1203.82 896.424H1236.75C1242.27 896.424 1246.75 891.947 1246.75 886.424V839.173C1246.75 833.65 1242.27 829.173 1236.75 829.173H1203.82C1198.3 829.173 1193.82 833.65 1193.82 839.173V886.424ZM1193.82 817.469C1193.82 822.992 1198.3 827.469 1203.82 827.469H1236.75C1242.27 827.469 1246.75 822.992 1246.75 817.469V770.218C1246.75 764.695 1242.27 760.218 1236.75 760.218H1203.82C1198.3 760.218 1193.82 764.695 1193.82 770.218V817.469ZM1193.82 748.514C1193.82 754.037 1198.3 758.514 1203.82 758.514H1236.75C1242.27 758.514 1246.75 754.037 1246.75 748.514V701.261C1246.75 695.738 1242.27 691.261 1236.75 691.261H1203.82C1198.3 691.261 1193.82 695.738 1193.82 701.261V748.514ZM1193.82 679.557C1193.82 685.08 1198.3 689.557 1203.82 689.557H1236.75C1242.27 689.557 1246.75 685.08 1246.75 679.557V632.306C1246.75 626.783 1242.27 622.306 1236.75 622.306H1203.82C1198.3 622.306 1193.82 626.783 1193.82 632.306V679.557ZM1193.82 610.602C1193.82 616.125 1198.3 620.602 1203.82 620.602H1236.75C1242.27 620.602 1246.75 616.125 1246.75 610.602V563.349C1246.75 557.827 1242.27 553.349 1236.75 553.349H1203.82C1198.3 553.349 1193.82 557.827 1193.82 563.349V610.602ZM1193.82 541.646C1193.82 547.168 1198.3 551.646 1203.82 551.646H1236.75C1242.27 551.646 1246.75 547.168 1246.75 541.646V494.394C1246.75 488.871 1242.27 484.394 1236.75 484.394L1203.82 484.394C1198.3 484.394 1193.82 488.871 1193.82 494.394V541.646ZM1193.82 472.691C1193.82 478.213 1198.3 482.691 1203.82 482.691L1236.75 482.691C1242.27 482.691 1246.75 478.213 1246.75 472.691V425.438C1246.75 419.915 1242.27 415.438 1236.75 415.438H1203.82C1198.3 415.438 1193.82 419.915 1193.82 425.438V472.691ZM1193.82 403.734C1193.82 409.257 1198.3 413.734 1203.82 413.734H1236.75C1242.27 413.734 1246.75 409.257 1246.75 403.734V356.482C1246.75 350.96 1242.27 346.482 1236.75 346.482H1203.82C1198.3 346.482 1193.82 350.96 1193.82 356.482V403.734ZM1193.82 334.779C1193.82 340.302 1198.3 344.779 1203.82 344.779H1236.75C1242.27 344.779 1246.75 340.302 1246.75 334.779V287.526C1246.75 282.003 1242.27 277.526 1236.75 277.526H1203.82C1198.3 277.526 1193.82 282.003 1193.82 287.526V334.779ZM1193.82 265.822C1193.82 271.345 1198.3 275.822 1203.82 275.822H1236.75C1242.27 275.822 1246.75 271.345 1246.75 265.822V218.571C1246.75 213.048 1242.27 208.571 1236.75 208.571H1203.82C1198.3 208.571 1193.82 213.048 1193.82 218.571V265.822ZM1193.82 196.867C1193.82 202.39 1198.3 206.867 1203.82 206.867H1236.75C1242.27 206.867 1246.75 202.39 1246.75 196.867V149.616C1246.75 144.093 1242.27 139.616 1236.75 139.616H1203.82C1198.3 139.616 1193.82 144.093 1193.82 149.616V196.867ZM1193.82 127.912C1193.82 133.435 1198.3 137.912 1203.82 137.912H1236.75C1242.27 137.912 1246.75 133.435 1246.75 127.912V80.6588C1246.75 75.1359 1242.27 70.6588 1236.75 70.6588H1203.82C1198.3 70.6588 1193.82 75.1359 1193.82 80.6588V127.912ZM1182.48 70.6588C1188.01 70.6588 1192.48 75.1359 1192.48 80.6588V127.912C1192.48 133.435 1188.01 137.912 1182.48 137.912H1149.56C1144.04 137.912 1139.56 133.435 1139.56 127.912V80.6588C1139.56 75.1359 1144.04 70.6588 1149.56 70.6588H1182.48ZM1182.48 139.616C1188.01 139.616 1192.48 144.093 1192.48 149.616V196.867C1192.48 202.39 1188.01 206.867 1182.48 206.867H1149.56C1144.04 206.867 1139.56 202.39 1139.56 196.867V149.616C1139.56 144.093 1144.04 139.616 1149.56 139.616H1182.48ZM1182.48 208.571C1188.01 208.571 1192.48 213.048 1192.48 218.571V265.822C1192.48 271.345 1188.01 275.822 1182.48 275.822H1149.56C1144.04 275.822 1139.56 271.345 1139.56 265.822V218.571C1139.56 213.048 1144.04 208.571 1149.56 208.571H1182.48ZM1182.48 277.526C1188.01 277.526 1192.48 282.003 1192.48 287.526V334.779C1192.48 340.302 1188.01 344.779 1182.48 344.779H1149.56C1144.04 344.779 1139.56 340.302 1139.56 334.779V287.526C1139.56 282.003 1144.04 277.526 1149.56 277.526H1182.48ZM1182.48 346.482C1188.01 346.482 1192.48 350.96 1192.48 356.482V403.734C1192.48 409.257 1188.01 413.734 1182.48 413.734H1149.56C1144.04 413.734 1139.56 409.257 1139.56 403.734V356.482C1139.56 350.96 1144.04 346.482 1149.56 346.482H1182.48ZM1182.48 415.438C1188.01 415.438 1192.48 419.915 1192.48 425.438V472.691C1192.48 478.213 1188.01 482.691 1182.48 482.691H1149.56C1144.04 482.691 1139.56 478.213 1139.56 472.691V425.438C1139.56 419.915 1144.04 415.438 1149.56 415.438H1182.48ZM1182.48 484.394C1188.01 484.394 1192.48 488.871 1192.48 494.394V541.646C1192.48 547.168 1188.01 551.646 1182.48 551.646H1149.56C1144.04 551.646 1139.56 547.168 1139.56 541.646V494.394C1139.56 488.871 1144.04 484.394 1149.56 484.394H1182.48ZM1182.48 553.349C1188.01 553.349 1192.48 557.827 1192.48 563.349V610.602C1192.48 616.125 1188.01 620.602 1182.48 620.602H1149.56C1144.04 620.602 1139.56 616.125 1139.56 610.602V563.349C1139.56 557.827 1144.04 553.349 1149.56 553.349H1182.48ZM1182.48 622.306C1188.01 622.306 1192.48 626.783 1192.48 632.306V679.557C1192.48 685.08 1188.01 689.557 1182.48 689.557H1149.56C1144.04 689.557 1139.56 685.08 1139.56 679.557V632.306C1139.56 626.783 1144.04 622.306 1149.56 622.306H1182.48ZM1182.48 691.261C1188.01 691.261 1192.48 695.738 1192.48 701.261V748.514C1192.48 754.037 1188.01 758.514 1182.48 758.514H1149.56C1144.04 758.514 1139.56 754.037 1139.56 748.514V701.261C1139.56 695.738 1144.04 691.261 1149.56 691.261H1182.48ZM1182.48 760.218C1188.01 760.218 1192.48 764.695 1192.48 770.218V817.469C1192.48 822.992 1188.01 827.469 1182.48 827.469H1149.56C1144.04 827.469 1139.56 822.992 1139.56 817.469V770.218C1139.56 764.695 1144.04 760.218 1149.56 760.218H1182.48ZM1182.48 829.173C1188.01 829.173 1192.48 833.65 1192.48 839.173V886.424C1192.48 891.947 1188.01 896.424 1182.48 896.424H1149.56C1144.04 896.424 1139.56 891.947 1139.56 886.424V839.173C1139.56 833.65 1144.04 829.173 1149.56 829.173H1182.48ZM1085.29 886.424C1085.29 891.947 1089.77 896.424 1095.29 896.424H1128.22C1133.74 896.424 1138.22 891.947 1138.22 886.424V839.173C1138.22 833.65 1133.74 829.173 1128.22 829.173H1095.29C1089.77 829.173 1085.29 833.65 1085.29 839.173V886.424ZM1085.29 817.469C1085.29 822.992 1089.77 827.469 1095.29 827.469H1128.22C1133.74 827.469 1138.22 822.992 1138.22 817.469V770.218C1138.22 764.695 1133.74 760.218 1128.22 760.218H1095.29C1089.77 760.218 1085.29 764.695 1085.29 770.218V817.469ZM1085.29 748.514C1085.29 754.037 1089.77 758.514 1095.29 758.514H1128.22C1133.74 758.514 1138.22 754.037 1138.22 748.514V701.261C1138.22 695.738 1133.74 691.261 1128.22 691.261H1095.29C1089.77 691.261 1085.29 695.738 1085.29 701.261V748.514ZM1085.29 679.557C1085.29 685.08 1089.77 689.557 1095.29 689.557H1128.22C1133.74 689.557 1138.22 685.08 1138.22 679.557V632.306C1138.22 626.783 1133.74 622.306 1128.22 622.306H1095.29C1089.77 622.306 1085.29 626.783 1085.29 632.306V679.557ZM1085.29 610.602C1085.29 616.125 1089.77 620.602 1095.29 620.602H1128.22C1133.74 620.602 1138.22 616.125 1138.22 610.602V563.349C1138.22 557.827 1133.74 553.349 1128.22 553.349H1095.29C1089.77 553.349 1085.29 557.827 1085.29 563.349V610.602ZM1085.29 541.646C1085.29 547.168 1089.77 551.646 1095.29 551.646H1128.22C1133.74 551.646 1138.22 547.168 1138.22 541.646V494.394C1138.22 488.871 1133.74 484.394 1128.22 484.394H1095.29C1089.77 484.394 1085.29 488.871 1085.29 494.394V541.646ZM1085.29 472.691C1085.29 478.213 1089.77 482.691 1095.29 482.691H1128.22C1133.74 482.691 1138.22 478.213 1138.22 472.691V425.438C1138.22 419.915 1133.74 415.438 1128.22 415.438H1095.29C1089.77 415.438 1085.29 419.915 1085.29 425.438V472.691ZM1085.29 403.734C1085.29 409.257 1089.77 413.734 1095.29 413.734H1128.22C1133.74 413.734 1138.22 409.257 1138.22 403.734V356.482C1138.22 350.96 1133.74 346.482 1128.22 346.482H1095.29C1089.77 346.482 1085.29 350.96 1085.29 356.482V403.734ZM1085.29 334.779C1085.29 340.302 1089.77 344.779 1095.29 344.779H1128.22C1133.74 344.779 1138.22 340.302 1138.22 334.779V287.526C1138.22 282.003 1133.74 277.526 1128.22 277.526H1095.29C1089.77 277.526 1085.29 282.003 1085.29 287.526V334.779ZM1085.29 265.822C1085.29 271.345 1089.77 275.822 1095.29 275.822H1128.22C1133.74 275.822 1138.22 271.345 1138.22 265.822V218.571C1138.22 213.048 1133.74 208.571 1128.22 208.571H1095.29C1089.77 208.571 1085.29 213.048 1085.29 218.571V265.822ZM1085.29 196.867C1085.29 202.39 1089.77 206.867 1095.29 206.867H1128.22C1133.74 206.867 1138.22 202.39 1138.22 196.867V149.616C1138.22 144.093 1133.74 139.616 1128.22 139.616H1095.29C1089.77 139.616 1085.29 144.093 1085.29 149.616V196.867ZM1085.29 127.912C1085.29 133.435 1089.77 137.912 1095.29 137.912H1128.22C1133.74 137.912 1138.22 133.435 1138.22 127.912V80.6588C1138.22 75.1359 1133.74 70.6588 1128.22 70.6588H1095.29C1089.77 70.6588 1085.29 75.1359 1085.29 80.6588V127.912ZM1073.95 70.6588C1079.48 70.6588 1083.95 75.1359 1083.95 80.6588V127.912C1083.95 133.435 1079.48 137.912 1073.95 137.912H1041.03C1035.51 137.912 1031.03 133.435 1031.03 127.912V80.6588C1031.03 75.1359 1035.51 70.6588 1041.03 70.6588H1073.95ZM1073.95 139.616C1079.48 139.616 1083.95 144.093 1083.95 149.616V196.867C1083.95 202.39 1079.48 206.867 1073.95 206.867H1041.03C1035.51 206.867 1031.03 202.39 1031.03 196.867V149.616C1031.03 144.093 1035.51 139.616 1041.03 139.616H1073.95ZM1073.95 208.571C1079.48 208.571 1083.95 213.048 1083.95 218.571V265.822C1083.95 271.345 1079.48 275.822 1073.95 275.822H1041.03C1035.51 275.822 1031.03 271.345 1031.03 265.822V218.571C1031.03 213.048 1035.51 208.571 1041.03 208.571H1073.95ZM1073.95 277.526C1079.48 277.526 1083.95 282.003 1083.95 287.526V334.779C1083.95 340.302 1079.48 344.779 1073.95 344.779H1041.03C1035.51 344.779 1031.03 340.302 1031.03 334.779V287.526C1031.03 282.003 1035.51 277.526 1041.03 277.526H1073.95ZM1073.95 346.482C1079.48 346.482 1083.95 350.96 1083.95 356.482V403.734C1083.95 409.257 1079.48 413.734 1073.95 413.734H1041.03C1035.51 413.734 1031.03 409.257 1031.03 403.734V356.482C1031.03 350.96 1035.51 346.482 1041.03 346.482H1073.95ZM1073.95 415.438C1079.48 415.438 1083.95 419.915 1083.95 425.438V472.691C1083.95 478.213 1079.48 482.691 1073.95 482.691H1041.03C1035.51 482.691 1031.03 478.213 1031.03 472.691V425.438C1031.03 419.915 1035.51 415.438 1041.03 415.438H1073.95ZM1073.95 484.394C1079.48 484.394 1083.95 488.871 1083.95 494.394V541.646C1083.95 547.168 1079.48 551.646 1073.95 551.646H1041.03C1035.51 551.646 1031.03 547.168 1031.03 541.646V494.394C1031.03 488.871 1035.51 484.394 1041.03 484.394H1073.95ZM1073.95 553.349C1079.48 553.349 1083.95 557.827 1083.95 563.349V610.602C1083.95 616.125 1079.48 620.602 1073.95 620.602H1041.03C1035.51 620.602 1031.03 616.125 1031.03 610.602V563.349C1031.03 557.827 1035.51 553.349 1041.03 553.349H1073.95ZM1073.95 622.306C1079.48 622.306 1083.95 626.783 1083.95 632.306V679.557C1083.95 685.08 1079.48 689.557 1073.95 689.557H1041.03C1035.51 689.557 1031.03 685.08 1031.03 679.557V632.306C1031.03 626.783 1035.51 622.306 1041.03 622.306H1073.95ZM1073.95 691.261C1079.48 691.261 1083.95 695.738 1083.95 701.261V748.514C1083.95 754.037 1079.48 758.514 1073.95 758.514H1041.03C1035.51 758.514 1031.03 754.037 1031.03 748.514V701.261C1031.03 695.738 1035.51 691.261 1041.03 691.261H1073.95ZM1073.95 760.218C1079.48 760.218 1083.95 764.695 1083.95 770.218V817.469C1083.95 822.992 1079.48 827.469 1073.95 827.469H1041.03C1035.51 827.469 1031.03 822.992 1031.03 817.469V770.218C1031.03 764.695 1035.51 760.218 1041.03 760.218H1073.95ZM1073.95 829.173C1079.48 829.173 1083.95 833.65 1083.95 839.173V886.424C1083.95 891.947 1079.48 896.424 1073.95 896.424H1041.03C1035.51 896.424 1031.03 891.947 1031.03 886.424V839.173C1031.03 833.65 1035.51 829.173 1041.03 829.173H1073.95ZM976.765 886.424C976.765 891.947 981.242 896.424 986.765 896.424H1019.69C1025.21 896.424 1029.69 891.947 1029.69 886.424V839.173C1029.69 833.65 1025.21 829.173 1019.69 829.173H986.765C981.242 829.173 976.765 833.65 976.765 839.173V886.424ZM976.765 817.469C976.765 822.992 981.242 827.469 986.765 827.469H1019.69C1025.21 827.469 1029.69 822.992 1029.69 817.469V770.218C1029.69 764.695 1025.21 760.218 1019.69 760.218H986.765C981.242 760.218 976.765 764.695 976.765 770.218V817.469ZM976.765 748.514C976.765 754.037 981.242 758.514 986.765 758.514H1019.69C1025.21 758.514 1029.69 754.037 1029.69 748.514V701.261C1029.69 695.738 1025.21 691.261 1019.69 691.261H986.765C981.242 691.261 976.765 695.738 976.765 701.261V748.514ZM976.765 679.557C976.765 685.08 981.242 689.557 986.765 689.557H1019.69C1025.21 689.557 1029.69 685.08 1029.69 679.557V632.306C1029.69 626.783 1025.21 622.306 1019.69 622.306H986.765C981.242 622.306 976.765 626.783 976.765 632.306V679.557ZM976.765 610.602C976.765 616.125 981.242 620.602 986.765 620.602H1019.69C1025.21 620.602 1029.69 616.125 1029.69 610.602V563.349C1029.69 557.827 1025.21 553.349 1019.69 553.349H986.765C981.242 553.349 976.765 557.827 976.765 563.349V610.602ZM976.765 541.646C976.765 547.168 981.242 551.646 986.765 551.646H1019.69C1025.21 551.646 1029.69 547.168 1029.69 541.646V494.394C1029.69 488.871 1025.21 484.394 1019.69 484.394H986.765C981.242 484.394 976.765 488.871 976.765 494.394V541.646ZM976.765 472.691C976.765 478.213 981.242 482.691 986.765 482.691H1019.69C1025.21 482.691 1029.69 478.213 1029.69 472.691V425.438C1029.69 419.915 1025.21 415.438 1019.69 415.438H986.765C981.242 415.438 976.765 419.915 976.765 425.438V472.691ZM976.765 403.734C976.765 409.257 981.242 413.734 986.765 413.734H1019.69C1025.21 413.734 1029.69 409.257 1029.69 403.734V356.482C1029.69 350.96 1025.21 346.482 1019.69 346.482H986.765C981.242 346.482 976.765 350.96 976.765 356.482V403.734ZM976.765 334.779C976.765 340.302 981.242 344.779 986.765 344.779H1019.69C1025.21 344.779 1029.69 340.302 1029.69 334.779V287.526C1029.69 282.003 1025.21 277.526 1019.69 277.526H986.765C981.242 277.526 976.765 282.003 976.765 287.526V334.779ZM976.765 265.822C976.765 271.345 981.242 275.822 986.765 275.822H1019.69C1025.21 275.822 1029.69 271.345 1029.69 265.822V218.571C1029.69 213.048 1025.21 208.571 1019.69 208.571H986.765C981.242 208.571 976.765 213.048 976.765 218.571V265.822ZM976.765 196.867C976.765 202.39 981.242 206.867 986.765 206.867H1019.69C1025.21 206.867 1029.69 202.39 1029.69 196.867V149.616C1029.69 144.093 1025.21 139.616 1019.69 139.616H986.765C981.242 139.616 976.765 144.093 976.765 149.616V196.867ZM976.765 127.912C976.765 133.435 981.242 137.912 986.765 137.912H1019.69C1025.21 137.912 1029.69 133.435 1029.69 127.912V80.6588C1029.69 75.1359 1025.21 70.6588 1019.69 70.6588H986.765C981.242 70.6588 976.765 75.1359 976.765 80.6588V127.912ZM965.424 70.6588C970.947 70.6588 975.424 75.1359 975.424 80.6588V127.912C975.424 133.435 970.947 137.912 965.424 137.912H932.5C926.977 137.912 922.5 133.435 922.5 127.912V80.6588C922.5 75.1359 926.977 70.6588 932.5 70.6588H965.424ZM965.424 139.616C970.947 139.616 975.424 144.093 975.424 149.616V196.867C975.424 202.39 970.947 206.867 965.424 206.867H932.5C926.977 206.867 922.5 202.39 922.5 196.867V149.616C922.5 144.093 926.977 139.616 932.5 139.616H965.424ZM965.424 208.571C970.947 208.571 975.424 213.048 975.424 218.571V265.822C975.424 271.345 970.947 275.822 965.424 275.822H932.5C926.977 275.822 922.5 271.345 922.5 265.822V218.571C922.5 213.048 926.977 208.571 932.5 208.571H965.424ZM965.424 277.526C970.947 277.526 975.424 282.003 975.424 287.526V334.779C975.424 340.302 970.947 344.779 965.424 344.779H932.5C926.977 344.779 922.5 340.302 922.5 334.779V287.526C922.5 282.003 926.977 277.526 932.5 277.526H965.424ZM965.424 346.482C970.947 346.482 975.424 350.96 975.424 356.482V403.734C975.424 409.257 970.947 413.734 965.424 413.734H932.5C926.977 413.734 922.5 409.257 922.5 403.734V356.482C922.5 350.96 926.977 346.482 932.5 346.482H965.424ZM965.424 415.438C970.947 415.438 975.424 419.915 975.424 425.438V472.691C975.424 478.213 970.947 482.691 965.424 482.691H932.5C926.977 482.691 922.5 478.213 922.5 472.691V425.438C922.5 419.915 926.977 415.438 932.5 415.438H965.424ZM965.424 484.394C970.947 484.394 975.424 488.871 975.424 494.394V541.646C975.424 547.168 970.947 551.646 965.424 551.646H932.5C926.977 551.646 922.5 547.168 922.5 541.646L922.5 494.394C922.5 488.871 926.977 484.394 932.5 484.394H965.424ZM965.424 553.349C970.947 553.349 975.424 557.827 975.424 563.349V610.602C975.424 616.125 970.947 620.602 965.424 620.602H932.5C926.977 620.602 922.5 616.125 922.5 610.602V563.349C922.5 557.827 926.977 553.349 932.5 553.349H965.424ZM965.424 622.306C970.947 622.306 975.424 626.783 975.424 632.306V679.557C975.424 685.08 970.947 689.557 965.424 689.557H932.5C926.977 689.557 922.5 685.08 922.5 679.557V632.306C922.5 626.783 926.977 622.306 932.5 622.306H965.424ZM965.424 691.261C970.947 691.261 975.424 695.738 975.424 701.261V748.514C975.424 754.037 970.947 758.514 965.424 758.514H932.5C926.977 758.514 922.5 754.037 922.5 748.514V701.261C922.5 695.738 926.977 691.261 932.5 691.261H965.424ZM965.424 760.218C970.947 760.218 975.424 764.695 975.424 770.218V817.469C975.424 822.992 970.947 827.469 965.424 827.469H932.5C926.977 827.469 922.5 822.992 922.5 817.469V770.218C922.5 764.695 926.977 760.218 932.5 760.218H965.424ZM965.424 829.173C970.947 829.173 975.424 833.65 975.424 839.173V886.424C975.424 891.947 970.947 896.424 965.424 896.424H932.5C926.977 896.424 922.5 891.947 922.5 886.424V839.173C922.5 833.65 926.977 829.173 932.5 829.173H965.424ZM868.236 886.424C868.236 891.947 872.713 896.424 878.236 896.424H911.159C916.682 896.424 921.159 891.947 921.159 886.424V839.173C921.159 833.65 916.682 829.173 911.159 829.173H878.236C872.713 829.173 868.236 833.65 868.236 839.173V886.424ZM868.236 817.469C868.236 822.992 872.713 827.469 878.236 827.469H911.159C916.682 827.469 921.159 822.992 921.159 817.469V770.218C921.159 764.695 916.682 760.218 911.159 760.218H878.236C872.713 760.218 868.236 764.695 868.236 770.218V817.469ZM868.236 748.514C868.236 754.037 872.713 758.514 878.236 758.514H911.159C916.682 758.514 921.159 754.037 921.159 748.514V701.261C921.159 695.738 916.682 691.261 911.159 691.261H878.236C872.713 691.261 868.236 695.738 868.236 701.261V748.514ZM868.236 679.557C868.236 685.08 872.713 689.557 878.236 689.557H911.159C916.682 689.557 921.159 685.08 921.159 679.557V632.306C921.159 626.783 916.682 622.306 911.159 622.306H878.236C872.713 622.306 868.236 626.783 868.236 632.306V679.557ZM868.236 610.602C868.236 616.125 872.713 620.602 878.236 620.602H911.159C916.682 620.602 921.159 616.125 921.159 610.602V563.349C921.159 557.827 916.682 553.349 911.159 553.349H878.236C872.713 553.349 868.236 557.827 868.236 563.349V610.602ZM868.236 541.646C868.236 547.168 872.713 551.646 878.236 551.646H911.159C916.682 551.646 921.159 547.168 921.159 541.646L921.159 494.394C921.159 488.871 916.682 484.394 911.159 484.394H878.236C872.713 484.394 868.236 488.871 868.236 494.394L868.236 541.646ZM868.236 472.691C868.236 478.213 872.713 482.691 878.236 482.691H911.159C916.682 482.691 921.159 478.213 921.159 472.691V425.438C921.159 419.915 916.682 415.438 911.159 415.438H878.236C872.713 415.438 868.236 419.915 868.236 425.438V472.691ZM868.236 403.734C868.236 409.257 872.713 413.734 878.236 413.734H911.159C916.682 413.734 921.159 409.257 921.159 403.734V356.482C921.159 350.96 916.682 346.482 911.159 346.482H878.236C872.713 346.482 868.236 350.96 868.236 356.482V403.734ZM868.236 334.779C868.236 340.302 872.713 344.779 878.236 344.779H911.159C916.682 344.779 921.159 340.302 921.159 334.779V287.526C921.159 282.003 916.682 277.526 911.159 277.526H878.236C872.713 277.526 868.236 282.003 868.236 287.526V334.779ZM868.236 265.822C868.236 271.345 872.713 275.822 878.236 275.822H911.159C916.682 275.822 921.159 271.345 921.159 265.822V218.571C921.159 213.048 916.682 208.571 911.159 208.571H878.236C872.713 208.571 868.236 213.048 868.236 218.571V265.822ZM868.236 196.867C868.236 202.39 872.713 206.867 878.236 206.867H911.159C916.682 206.867 921.159 202.39 921.159 196.867V149.616C921.159 144.093 916.682 139.616 911.159 139.616H878.236C872.713 139.616 868.236 144.093 868.236 149.616V196.867ZM868.236 127.912C868.236 133.435 872.713 137.912 878.236 137.912H911.159C916.682 137.912 921.159 133.435 921.159 127.912V80.6588C921.159 75.1359 916.682 70.6588 911.159 70.6588H878.236C872.713 70.6588 868.236 75.1359 868.236 80.6588V127.912ZM856.895 70.6588C862.418 70.6588 866.895 75.1359 866.895 80.6588V127.912C866.895 133.435 862.418 137.912 856.895 137.912H823.97C818.447 137.912 813.97 133.435 813.97 127.912V80.6588C813.97 75.1359 818.447 70.6588 823.97 70.6588H856.895ZM856.895 139.616C862.418 139.616 866.895 144.093 866.895 149.616V196.867C866.895 202.39 862.418 206.867 856.895 206.867H823.97C818.447 206.867 813.97 202.39 813.97 196.867V149.616C813.97 144.093 818.447 139.616 823.97 139.616H856.895ZM856.895 208.571C862.418 208.571 866.895 213.048 866.895 218.571V265.822C866.895 271.345 862.418 275.822 856.895 275.822H823.97C818.447 275.822 813.97 271.345 813.97 265.822V218.571C813.97 213.048 818.447 208.571 823.97 208.571H856.895ZM856.895 277.526C862.418 277.526 866.895 282.003 866.895 287.526V334.779C866.895 340.302 862.418 344.779 856.895 344.779H823.97C818.447 344.779 813.97 340.302 813.97 334.779V287.526C813.97 282.003 818.447 277.526 823.97 277.526H856.895ZM856.895 346.482C862.418 346.482 866.895 350.96 866.895 356.482V403.734C866.895 409.257 862.418 413.734 856.895 413.734H823.97C818.447 413.734 813.97 409.257 813.97 403.734V356.482C813.97 350.96 818.447 346.482 823.97 346.482H856.895ZM856.895 415.438C862.418 415.438 866.895 419.915 866.895 425.438V472.691C866.895 478.213 862.418 482.691 856.895 482.691H823.97C818.447 482.691 813.97 478.213 813.97 472.691V425.438C813.97 419.915 818.447 415.438 823.97 415.438H856.895ZM856.895 484.394C862.418 484.394 866.895 488.871 866.895 494.394L866.895 541.646C866.895 547.168 862.418 551.646 856.895 551.646H823.97C818.447 551.646 813.97 547.168 813.97 541.646L813.97 494.394C813.97 488.871 818.447 484.394 823.97 484.394H856.895ZM856.895 553.349C862.418 553.349 866.895 557.827 866.895 563.349V610.602C866.895 616.125 862.418 620.602 856.895 620.602H823.97C818.447 620.602 813.97 616.125 813.97 610.602V563.349C813.97 557.827 818.447 553.349 823.97 553.349H856.895ZM856.895 622.306C862.418 622.306 866.895 626.783 866.895 632.306V679.557C866.895 685.08 862.418 689.557 856.895 689.557H823.97C818.447 689.557 813.97 685.08 813.97 679.557V632.306C813.97 626.783 818.447 622.306 823.97 622.306H856.895ZM856.895 691.261C862.418 691.261 866.895 695.738 866.895 701.261V748.514C866.895 754.037 862.418 758.514 856.895 758.514H823.97C818.447 758.514 813.97 754.037 813.97 748.514V701.261C813.97 695.738 818.447 691.261 823.97 691.261H856.895ZM856.895 760.218C862.418 760.218 866.895 764.695 866.895 770.218V817.469C866.895 822.992 862.418 827.469 856.895 827.469H823.97C818.447 827.469 813.97 822.992 813.97 817.469V770.218C813.97 764.695 818.447 760.218 823.97 760.218H856.895ZM856.895 829.173C862.418 829.173 866.895 833.65 866.895 839.173V886.424C866.895 891.947 862.418 896.424 856.895 896.424H823.97C818.447 896.424 813.97 891.947 813.97 886.424V839.173C813.97 833.65 818.447 829.173 823.97 829.173H856.895ZM759.706 886.424C759.706 891.947 764.183 896.424 769.706 896.424H802.629C808.152 896.424 812.629 891.947 812.629 886.424V839.173C812.629 833.65 808.152 829.173 802.629 829.173H769.706C764.183 829.173 759.706 833.65 759.706 839.173V886.424ZM759.706 817.469C759.706 822.992 764.183 827.469 769.706 827.469H802.629C808.152 827.469 812.629 822.992 812.629 817.469V770.218C812.629 764.695 808.152 760.218 802.629 760.218H769.706C764.183 760.218 759.706 764.695 759.706 770.218V817.469ZM759.706 748.514C759.706 754.037 764.183 758.514 769.706 758.514H802.629C808.152 758.514 812.629 754.037 812.629 748.514V701.261C812.629 695.738 808.152 691.261 802.629 691.261H769.706C764.183 691.261 759.706 695.738 759.706 701.261V748.514ZM759.706 679.557C759.706 685.08 764.183 689.557 769.706 689.557H802.629C808.152 689.557 812.629 685.08 812.629 679.557V632.306C812.629 626.783 808.152 622.306 802.629 622.306H769.706C764.183 622.306 759.706 626.783 759.706 632.306V679.557ZM759.706 610.602C759.706 616.125 764.183 620.602 769.706 620.602H802.629C808.152 620.602 812.629 616.125 812.629 610.602V563.349C812.629 557.827 808.152 553.349 802.629 553.349H769.706C764.183 553.349 759.706 557.827 759.706 563.349V610.602ZM759.706 541.646C759.706 547.168 764.183 551.646 769.706 551.646H802.629C808.152 551.646 812.629 547.168 812.629 541.646L812.629 494.394C812.629 488.871 808.152 484.394 802.629 484.394H769.706C764.183 484.394 759.706 488.871 759.706 494.394L759.706 541.646ZM759.706 472.691C759.706 478.213 764.183 482.691 769.706 482.691H802.629C808.152 482.691 812.629 478.213 812.629 472.691V425.438C812.629 419.915 808.152 415.438 802.629 415.438H769.706C764.183 415.438 759.706 419.915 759.706 425.438V472.691ZM759.706 403.734C759.706 409.257 764.183 413.734 769.706 413.734H802.629C808.152 413.734 812.629 409.257 812.629 403.734V356.482C812.629 350.96 808.152 346.482 802.629 346.482H769.706C764.183 346.482 759.706 350.96 759.706 356.482V403.734ZM759.706 334.779C759.706 340.302 764.183 344.779 769.706 344.779H802.629C808.152 344.779 812.629 340.302 812.629 334.779V287.526C812.629 282.003 808.152 277.526 802.629 277.526H769.706C764.183 277.526 759.706 282.003 759.706 287.526V334.779ZM759.706 265.822C759.706 271.345 764.183 275.822 769.706 275.822H802.629C808.152 275.822 812.629 271.345 812.629 265.822V218.571C812.629 213.048 808.152 208.571 802.629 208.571H769.706C764.183 208.571 759.706 213.048 759.706 218.571V265.822ZM759.706 196.867C759.706 202.39 764.183 206.867 769.706 206.867H802.629C808.152 206.867 812.629 202.39 812.629 196.867V149.616C812.629 144.093 808.152 139.616 802.629 139.616H769.706C764.183 139.616 759.706 144.093 759.706 149.616V196.867ZM759.706 127.912C759.706 133.435 764.183 137.912 769.706 137.912H802.629C808.152 137.912 812.629 133.435 812.629 127.912V80.6588C812.629 75.1359 808.152 70.6588 802.629 70.6588H769.706C764.183 70.6588 759.706 75.1359 759.706 80.6588V127.912ZM748.365 70.6588C753.888 70.6588 758.365 75.1359 758.365 80.6588V127.912C758.365 133.435 753.888 137.912 748.365 137.912H715.44C709.918 137.912 705.44 133.435 705.44 127.912V80.6588C705.44 75.1359 709.918 70.6588 715.44 70.6588H748.365ZM748.365 139.616C753.888 139.616 758.365 144.093 758.365 149.616V196.867C758.365 202.39 753.888 206.867 748.365 206.867H715.44C709.918 206.867 705.44 202.39 705.44 196.867V149.616C705.44 144.093 709.918 139.616 715.44 139.616H748.365ZM748.365 208.571C753.888 208.571 758.365 213.048 758.365 218.571V265.822C758.365 271.345 753.888 275.822 748.365 275.822H715.44C709.918 275.822 705.44 271.345 705.44 265.822V218.571C705.44 213.048 709.918 208.571 715.44 208.571H748.365ZM748.365 277.526C753.888 277.526 758.365 282.003 758.365 287.526V334.779C758.365 340.302 753.888 344.779 748.365 344.779H715.44C709.918 344.779 705.44 340.302 705.44 334.779V287.526C705.44 282.003 709.918 277.526 715.44 277.526H748.365ZM748.365 346.482C753.888 346.482 758.365 350.96 758.365 356.482V403.734C758.365 409.257 753.888 413.734 748.365 413.734H715.44C709.918 413.734 705.44 409.257 705.44 403.734V356.482C705.44 350.96 709.918 346.482 715.44 346.482H748.365ZM748.365 415.438C753.888 415.438 758.365 419.915 758.365 425.438V472.691C758.365 478.213 753.888 482.691 748.365 482.691L715.44 482.691C709.918 482.691 705.44 478.213 705.44 472.691V425.438C705.44 419.915 709.918 415.438 715.44 415.438H748.365ZM748.365 484.394C753.888 484.394 758.365 488.871 758.365 494.394L758.365 541.646C758.365 547.168 753.888 551.646 748.365 551.646L715.44 551.646C709.918 551.646 705.44 547.168 705.44 541.646L705.44 494.394C705.44 488.871 709.918 484.394 715.44 484.394L748.365 484.394ZM748.365 553.349C753.888 553.349 758.365 557.827 758.365 563.349V610.602C758.365 616.125 753.888 620.602 748.365 620.602L715.44 620.602C709.918 620.602 705.44 616.125 705.44 610.602V563.349C705.44 557.827 709.918 553.349 715.44 553.349L748.365 553.349ZM748.365 622.306C753.888 622.306 758.365 626.783 758.365 632.306V679.557C758.365 685.08 753.888 689.557 748.365 689.557L715.44 689.557C709.918 689.557 705.44 685.08 705.44 679.557V632.306C705.44 626.783 709.918 622.306 715.44 622.306L748.365 622.306ZM748.365 691.261C753.888 691.261 758.365 695.738 758.365 701.261V748.514C758.365 754.037 753.888 758.514 748.365 758.514H715.44C709.918 758.514 705.44 754.037 705.44 748.514V701.261C705.44 695.738 709.918 691.261 715.44 691.261L748.365 691.261ZM748.365 760.218C753.888 760.218 758.365 764.695 758.365 770.218V817.469C758.365 822.992 753.888 827.469 748.365 827.469H715.44C709.918 827.469 705.44 822.992 705.44 817.469V770.218C705.44 764.695 709.918 760.218 715.44 760.218H748.365ZM748.365 829.173C753.888 829.173 758.365 833.65 758.365 839.173V886.424C758.365 891.947 753.888 896.424 748.365 896.424H715.44C709.918 896.424 705.44 891.947 705.44 886.424V839.173C705.44 833.65 709.918 829.173 715.44 829.173H748.365ZM651.176 886.424C651.176 891.947 655.653 896.424 661.176 896.424H694.1C699.622 896.424 704.1 891.947 704.1 886.424V839.173C704.1 833.65 699.622 829.173 694.1 829.173H661.176C655.653 829.173 651.176 833.65 651.176 839.173V886.424ZM651.176 817.469C651.176 822.992 655.653 827.469 661.176 827.469H694.1C699.622 827.469 704.1 822.992 704.1 817.469V770.218C704.1 764.695 699.622 760.218 694.1 760.218H661.176C655.653 760.218 651.176 764.695 651.176 770.218V817.469ZM651.176 748.514C651.176 754.037 655.653 758.514 661.176 758.514H694.1C699.622 758.514 704.1 754.037 704.1 748.514V701.261C704.1 695.738 699.622 691.261 694.1 691.261H661.176C655.653 691.261 651.176 695.738 651.176 701.261V748.514ZM651.176 679.557C651.176 685.08 655.653 689.557 661.176 689.557H694.1C699.622 689.557 704.1 685.08 704.1 679.557V632.306C704.1 626.783 699.622 622.306 694.1 622.306H661.176C655.653 622.306 651.176 626.783 651.176 632.306V679.557ZM651.176 610.602C651.176 616.125 655.653 620.602 661.176 620.602H694.1C699.622 620.602 704.1 616.125 704.1 610.602V563.349C704.1 557.827 699.622 553.349 694.1 553.349H661.176C655.653 553.349 651.176 557.827 651.176 563.349V610.602ZM651.176 541.646C651.176 547.168 655.653 551.646 661.176 551.646H694.1C699.622 551.646 704.1 547.168 704.1 541.646L704.1 494.394C704.1 488.871 699.622 484.394 694.1 484.394H661.176C655.653 484.394 651.176 488.871 651.176 494.394L651.176 541.646ZM651.176 472.691C651.176 478.213 655.653 482.691 661.176 482.691H694.1C699.622 482.691 704.1 478.213 704.1 472.691V425.438C704.1 419.915 699.622 415.438 694.1 415.438H661.176C655.653 415.438 651.176 419.915 651.176 425.438V472.691ZM651.176 403.734C651.176 409.257 655.653 413.734 661.176 413.734H694.1C699.622 413.734 704.1 409.257 704.1 403.734V356.482C704.1 350.96 699.622 346.482 694.1 346.482H661.176C655.653 346.482 651.176 350.96 651.176 356.482V403.734ZM651.176 334.779C651.176 340.302 655.653 344.779 661.176 344.779H694.1C699.622 344.779 704.1 340.302 704.1 334.779V287.526C704.1 282.003 699.622 277.526 694.1 277.526H661.176C655.653 277.526 651.176 282.003 651.176 287.526V334.779ZM651.176 265.822C651.176 271.345 655.653 275.822 661.176 275.822H694.1C699.622 275.822 704.1 271.345 704.1 265.822V218.571C704.1 213.048 699.622 208.571 694.1 208.571H661.176C655.653 208.571 651.176 213.048 651.176 218.571V265.822ZM651.176 196.867C651.176 202.39 655.653 206.867 661.176 206.867H694.1C699.622 206.867 704.1 202.39 704.1 196.867V149.616C704.1 144.093 699.622 139.616 694.1 139.616H661.176C655.653 139.616 651.176 144.093 651.176 149.616V196.867ZM651.176 127.912C651.176 133.435 655.653 137.912 661.176 137.912H694.1C699.622 137.912 704.1 133.435 704.1 127.912V80.6588C704.1 75.1359 699.622 70.6588 694.1 70.6588H661.176C655.653 70.6588 651.176 75.1359 651.176 80.6588V127.912ZM639.836 70.6588C645.358 70.6588 649.836 75.1359 649.836 80.6588V127.912C649.836 133.435 645.358 137.912 639.836 137.912H606.911C601.388 137.912 596.911 133.435 596.911 127.912V80.6588C596.911 75.1359 601.388 70.6588 606.911 70.6588H639.836ZM639.836 139.616C645.358 139.616 649.836 144.093 649.836 149.616V196.867C649.836 202.39 645.358 206.867 639.836 206.867H606.911C601.388 206.867 596.911 202.39 596.911 196.867V149.616C596.911 144.093 601.388 139.616 606.911 139.616H639.836ZM639.836 208.571C645.358 208.571 649.836 213.048 649.836 218.571V265.822C649.836 271.345 645.358 275.822 639.836 275.822H606.911C601.388 275.822 596.911 271.345 596.911 265.822V218.571C596.911 213.048 601.388 208.571 606.911 208.571H639.836ZM639.836 277.526C645.358 277.526 649.836 282.003 649.836 287.526V334.779C649.836 340.302 645.358 344.779 639.836 344.779H606.911C601.388 344.779 596.911 340.302 596.911 334.779V287.526C596.911 282.003 601.388 277.526 606.911 277.526H639.836ZM639.836 346.482C645.358 346.482 649.836 350.96 649.836 356.482V403.734C649.836 409.257 645.358 413.734 639.836 413.734H606.911C601.388 413.734 596.911 409.257 596.911 403.734V356.482C596.911 350.96 601.388 346.482 606.911 346.482H639.836ZM639.836 415.438C645.358 415.438 649.836 419.915 649.836 425.438V472.691C649.836 478.213 645.358 482.691 639.836 482.691H606.911C601.388 482.691 596.911 478.213 596.911 472.691V425.438C596.911 419.915 601.388 415.438 606.911 415.438H639.836ZM639.836 484.394C645.358 484.394 649.836 488.871 649.836 494.394L649.836 541.646C649.836 547.168 645.358 551.646 639.836 551.646H606.911C601.388 551.646 596.911 547.168 596.911 541.646L596.911 494.394C596.911 488.871 601.388 484.394 606.911 484.394H639.836ZM639.836 553.349C645.358 553.349 649.836 557.827 649.836 563.349V610.602C649.836 616.125 645.358 620.602 639.836 620.602H606.911C601.388 620.602 596.911 616.125 596.911 610.602V563.349C596.911 557.827 601.388 553.349 606.911 553.349H639.836ZM639.836 622.306C645.358 622.306 649.836 626.783 649.836 632.306V679.557C649.836 685.08 645.358 689.557 639.836 689.557H606.911C601.388 689.557 596.911 685.08 596.911 679.557V632.306C596.911 626.783 601.388 622.306 606.911 622.306H639.836ZM639.836 691.261C645.358 691.261 649.836 695.738 649.836 701.261V748.514C649.836 754.037 645.358 758.514 639.836 758.514H606.911C601.388 758.514 596.911 754.037 596.911 748.514V701.261C596.911 695.738 601.388 691.261 606.911 691.261H639.836ZM639.836 760.218C645.358 760.218 649.836 764.695 649.836 770.218V817.469C649.836 822.992 645.358 827.469 639.836 827.469H606.911C601.388 827.469 596.911 822.992 596.911 817.469V770.218C596.911 764.695 601.388 760.218 606.911 760.218H639.836ZM639.836 829.173C645.358 829.173 649.836 833.65 649.836 839.173V886.424C649.836 891.947 645.358 896.424 639.836 896.424H606.911C601.388 896.424 596.911 891.947 596.911 886.424V839.173C596.911 833.65 601.388 829.173 606.911 829.173H639.836ZM542.647 886.424C542.647 891.947 547.124 896.424 552.647 896.424H585.57C591.093 896.424 595.57 891.947 595.57 886.424V839.173C595.57 833.65 591.093 829.173 585.57 829.173H552.647C547.124 829.173 542.647 833.65 542.647 839.173V886.424ZM542.647 817.469C542.647 822.992 547.124 827.469 552.647 827.469H585.57C591.093 827.469 595.57 822.992 595.57 817.469V770.218C595.57 764.695 591.093 760.218 585.57 760.218H552.647C547.124 760.218 542.647 764.695 542.647 770.218V817.469ZM542.647 748.514C542.647 754.037 547.124 758.514 552.647 758.514H585.57C591.093 758.514 595.57 754.037 595.57 748.514V701.261C595.57 695.738 591.093 691.261 585.57 691.261H552.647C547.124 691.261 542.647 695.738 542.647 701.261V748.514ZM542.647 679.557C542.647 685.08 547.124 689.557 552.647 689.557H585.57C591.093 689.557 595.57 685.08 595.57 679.557V632.306C595.57 626.783 591.093 622.306 585.57 622.306H552.647C547.124 622.306 542.647 626.783 542.647 632.306V679.557ZM542.647 610.602C542.647 616.125 547.124 620.602 552.647 620.602H585.57C591.093 620.602 595.57 616.125 595.57 610.602V563.349C595.57 557.827 591.093 553.349 585.57 553.349H552.647C547.124 553.349 542.647 557.827 542.647 563.349V610.602ZM542.647 541.646C542.647 547.168 547.124 551.646 552.647 551.646H585.57C591.093 551.646 595.57 547.168 595.57 541.646L595.57 494.394C595.57 488.871 591.093 484.394 585.57 484.394H552.647C547.124 484.394 542.647 488.871 542.647 494.394L542.647 541.646ZM542.647 472.691C542.647 478.213 547.124 482.691 552.647 482.691H585.57C591.093 482.691 595.57 478.213 595.57 472.691V425.438C595.57 419.915 591.093 415.438 585.57 415.438H552.647C547.124 415.438 542.647 419.915 542.647 425.438V472.691ZM542.647 403.734C542.647 409.257 547.124 413.734 552.647 413.734H585.57C591.093 413.734 595.57 409.257 595.57 403.734V356.482C595.57 350.96 591.093 346.482 585.57 346.482H552.647C547.124 346.482 542.647 350.96 542.647 356.482V403.734ZM542.647 334.779C542.647 340.302 547.124 344.779 552.647 344.779H585.57C591.093 344.779 595.57 340.302 595.57 334.779V287.526C595.57 282.003 591.093 277.526 585.57 277.526H552.647C547.124 277.526 542.647 282.003 542.647 287.526V334.779ZM542.647 265.822C542.647 271.345 547.124 275.822 552.647 275.822H585.57C591.093 275.822 595.57 271.345 595.57 265.822V218.571C595.57 213.048 591.093 208.571 585.57 208.571H552.647C547.124 208.571 542.647 213.048 542.647 218.571V265.822ZM542.647 196.867C542.647 202.39 547.124 206.867 552.647 206.867H585.57C591.093 206.867 595.57 202.39 595.57 196.867V149.616C595.57 144.093 591.093 139.616 585.57 139.616H552.647C547.124 139.616 542.647 144.093 542.647 149.616V196.867ZM542.647 127.912C542.647 133.435 547.124 137.912 552.647 137.912H585.57C591.093 137.912 595.57 133.435 595.57 127.912V80.6588C595.57 75.1359 591.093 70.6588 585.57 70.6588H552.647C547.124 70.6588 542.647 75.1359 542.647 80.6588V127.912ZM531.306 70.6588C536.829 70.6588 541.306 75.1359 541.306 80.6588V127.912C541.306 133.435 536.829 137.912 531.306 137.912H498.381C492.858 137.912 488.381 133.435 488.381 127.912V80.6588C488.381 75.1359 492.858 70.6588 498.381 70.6588H531.306ZM531.306 139.616C536.829 139.616 541.306 144.093 541.306 149.616V196.867C541.306 202.39 536.829 206.867 531.306 206.867H498.381C492.858 206.867 488.381 202.39 488.381 196.867V149.616C488.381 144.093 492.858 139.616 498.381 139.616H531.306ZM531.306 208.571C536.829 208.571 541.306 213.048 541.306 218.571V265.822C541.306 271.345 536.829 275.822 531.306 275.822H498.381C492.858 275.822 488.381 271.345 488.381 265.822V218.571C488.381 213.048 492.858 208.571 498.381 208.571H531.306ZM531.306 277.526C536.829 277.526 541.306 282.003 541.306 287.526V334.779C541.306 340.302 536.829 344.779 531.306 344.779H498.381C492.858 344.779 488.381 340.302 488.381 334.779V287.526C488.381 282.003 492.858 277.526 498.381 277.526H531.306ZM531.306 346.482C536.829 346.482 541.306 350.96 541.306 356.482V403.734C541.306 409.257 536.829 413.734 531.306 413.734H498.381C492.858 413.734 488.381 409.257 488.381 403.734V356.482C488.381 350.96 492.858 346.482 498.381 346.482H531.306ZM531.306 415.438C536.829 415.438 541.306 419.915 541.306 425.438V472.691C541.306 478.213 536.829 482.691 531.306 482.691H498.381C492.858 482.691 488.381 478.213 488.381 472.691V425.438C488.381 419.915 492.858 415.438 498.381 415.438H531.306ZM531.306 484.394C536.829 484.394 541.306 488.871 541.306 494.394L541.306 541.646C541.306 547.168 536.829 551.646 531.306 551.646H498.381C492.858 551.646 488.381 547.168 488.381 541.646L488.381 494.394C488.381 488.871 492.858 484.394 498.381 484.394H531.306ZM531.306 553.349C536.829 553.349 541.306 557.827 541.306 563.349V610.602C541.306 616.125 536.829 620.602 531.306 620.602H498.381C492.858 620.602 488.381 616.125 488.381 610.602V563.349C488.381 557.827 492.858 553.349 498.381 553.349H531.306ZM531.306 622.306C536.829 622.306 541.306 626.783 541.306 632.306V679.557C541.306 685.08 536.829 689.557 531.306 689.557H498.381C492.858 689.557 488.381 685.08 488.381 679.557V632.306C488.381 626.783 492.858 622.306 498.381 622.306H531.306ZM531.306 691.261C536.829 691.261 541.306 695.738 541.306 701.261V748.514C541.306 754.037 536.829 758.514 531.306 758.514H498.381C492.858 758.514 488.381 754.037 488.381 748.514V701.261C488.381 695.738 492.858 691.261 498.381 691.261H531.306ZM531.306 760.218C536.829 760.218 541.306 764.695 541.306 770.218V817.469C541.306 822.992 536.829 827.469 531.306 827.469H498.381C492.858 827.469 488.381 822.992 488.381 817.469V770.218C488.381 764.695 492.858 760.218 498.381 760.218H531.306ZM531.306 829.173C536.829 829.173 541.306 833.65 541.306 839.173V886.424C541.306 891.947 536.829 896.424 531.306 896.424H498.381C492.858 896.424 488.381 891.947 488.381 886.424V839.173C488.381 833.65 492.858 829.173 498.381 829.173H531.306ZM434.119 886.424C434.119 891.947 438.596 896.424 444.119 896.424H477.04C482.563 896.424 487.04 891.947 487.04 886.424V839.173C487.04 833.65 482.563 829.173 477.04 829.173H444.118C438.596 829.173 434.119 833.65 434.119 839.173V886.424ZM434.119 817.469C434.119 822.992 438.596 827.469 444.119 827.469H477.04C482.563 827.469 487.04 822.992 487.04 817.469V770.218C487.04 764.695 482.563 760.218 477.04 760.218H444.118C438.596 760.218 434.119 764.695 434.119 770.218V817.469ZM434.119 748.514C434.119 754.037 438.596 758.514 444.119 758.514H477.04C482.563 758.514 487.04 754.037 487.04 748.514V701.261C487.04 695.738 482.563 691.261 477.04 691.261H444.118C438.596 691.261 434.119 695.738 434.119 701.261V748.514ZM434.119 679.557C434.119 685.08 438.596 689.557 444.119 689.557H477.04C482.563 689.557 487.04 685.08 487.04 679.557V632.306C487.04 626.783 482.563 622.306 477.04 622.306H444.118C438.596 622.306 434.119 626.783 434.119 632.306V679.557ZM434.119 610.602C434.119 616.125 438.596 620.602 444.119 620.602H477.04C482.563 620.602 487.04 616.125 487.04 610.602V563.349C487.04 557.827 482.563 553.349 477.04 553.349H444.118C438.596 553.349 434.119 557.827 434.119 563.349V610.602ZM434.119 541.646C434.119 547.168 438.596 551.646 444.119 551.646H477.04C482.563 551.646 487.04 547.168 487.04 541.646L487.04 494.394C487.04 488.871 482.563 484.394 477.04 484.394H444.118C438.596 484.394 434.119 488.871 434.119 494.394L434.119 541.646ZM434.119 472.691C434.119 478.213 438.596 482.691 444.119 482.691H477.04C482.563 482.691 487.04 478.213 487.04 472.691V425.438C487.04 419.915 482.563 415.438 477.04 415.438H444.118C438.596 415.438 434.119 419.915 434.119 425.438V472.691ZM434.119 403.734C434.119 409.257 438.596 413.734 444.119 413.734H477.04C482.563 413.734 487.04 409.257 487.04 403.734V356.482C487.04 350.96 482.563 346.482 477.04 346.482H444.118C438.596 346.482 434.119 350.96 434.119 356.482V403.734ZM434.119 334.779C434.119 340.302 438.596 344.779 444.119 344.779H477.04C482.563 344.779 487.04 340.302 487.04 334.779V287.526C487.04 282.003 482.563 277.526 477.04 277.526H444.118C438.596 277.526 434.119 282.003 434.119 287.526V334.779ZM434.119 265.822C434.119 271.345 438.596 275.822 444.119 275.822H477.04C482.563 275.822 487.04 271.345 487.04 265.822V218.571C487.04 213.048 482.563 208.571 477.04 208.571H444.118C438.596 208.571 434.119 213.048 434.119 218.571V265.822ZM434.119 196.867C434.119 202.39 438.596 206.867 444.119 206.867H477.04C482.563 206.867 487.04 202.39 487.04 196.867V149.616C487.04 144.093 482.563 139.616 477.04 139.616H444.118C438.596 139.616 434.119 144.093 434.119 149.616V196.867ZM434.119 127.912C434.119 133.435 438.596 137.912 444.119 137.912H477.04C482.563 137.912 487.04 133.435 487.04 127.912V80.6588C487.04 75.1359 482.563 70.6588 477.04 70.6588H444.118C438.596 70.6588 434.119 75.1359 434.119 80.6588V127.912ZM422.778 70.6588C428.301 70.6588 432.778 75.1359 432.778 80.6588V127.912C432.778 133.435 428.301 137.912 422.778 137.912H389.853C384.33 137.912 379.853 133.435 379.853 127.912V80.6588C379.853 75.1359 384.33 70.6588 389.853 70.6588H422.778ZM422.778 139.616C428.301 139.616 432.778 144.093 432.778 149.616V196.867C432.778 202.39 428.301 206.867 422.778 206.867H389.853C384.33 206.867 379.853 202.39 379.853 196.867V149.616C379.853 144.093 384.33 139.616 389.853 139.616H422.778ZM422.778 208.571C428.301 208.571 432.778 213.048 432.778 218.571V265.822C432.778 271.345 428.301 275.822 422.778 275.822H389.853C384.33 275.822 379.853 271.345 379.853 265.822V218.571C379.853 213.048 384.33 208.571 389.853 208.571H422.778ZM422.778 277.526C428.301 277.526 432.778 282.003 432.778 287.526V334.779C432.778 340.302 428.301 344.779 422.778 344.779H389.853C384.33 344.779 379.853 340.302 379.853 334.779V287.526C379.853 282.003 384.33 277.526 389.853 277.526H422.778ZM422.778 346.482C428.301 346.482 432.778 350.96 432.778 356.482V403.734C432.778 409.257 428.301 413.734 422.778 413.734H389.853C384.33 413.734 379.853 409.257 379.853 403.734V356.482C379.853 350.96 384.33 346.482 389.853 346.482H422.778ZM422.778 415.438C428.301 415.438 432.778 419.915 432.778 425.438V472.691C432.778 478.213 428.301 482.691 422.778 482.691H389.853C384.33 482.691 379.853 478.213 379.853 472.691V425.438C379.853 419.915 384.33 415.438 389.853 415.438H422.778ZM422.778 484.394C428.301 484.394 432.778 488.871 432.778 494.394L432.778 541.646C432.778 547.168 428.301 551.646 422.778 551.646H389.853C384.33 551.646 379.853 547.168 379.853 541.646V494.394C379.853 488.871 384.33 484.394 389.853 484.394H422.778ZM422.778 553.349C428.301 553.349 432.778 557.827 432.778 563.349V610.602C432.778 616.125 428.301 620.602 422.778 620.602H389.853C384.33 620.602 379.853 616.125 379.853 610.602V563.349C379.853 557.827 384.33 553.349 389.853 553.349H422.778ZM422.778 622.306C428.301 622.306 432.778 626.783 432.778 632.306V679.557C432.778 685.08 428.301 689.557 422.778 689.557H389.853C384.33 689.557 379.853 685.08 379.853 679.557V632.306C379.853 626.783 384.33 622.306 389.853 622.306H422.778ZM422.778 691.261C428.301 691.261 432.778 695.738 432.778 701.261V748.514C432.778 754.037 428.301 758.514 422.778 758.514H389.853C384.33 758.514 379.853 754.037 379.853 748.514V701.261C379.853 695.738 384.33 691.261 389.853 691.261H422.778ZM422.778 760.218C428.301 760.218 432.778 764.695 432.778 770.218V817.469C432.778 822.992 428.301 827.469 422.778 827.469H389.853C384.33 827.469 379.853 822.992 379.853 817.469V770.218C379.853 764.695 384.33 760.218 389.853 760.218H422.778ZM422.778 829.173C428.301 829.173 432.778 833.65 432.778 839.173V886.424C432.778 891.947 428.301 896.424 422.778 896.424H389.853C384.33 896.424 379.853 891.947 379.853 886.424V839.173C379.853 833.65 384.33 829.173 389.853 829.173H422.778ZM325.589 886.424C325.589 891.947 330.066 896.424 335.589 896.424H368.512C374.035 896.424 378.512 891.947 378.512 886.424V839.173C378.512 833.65 374.035 829.173 368.512 829.173H335.589C330.066 829.173 325.589 833.65 325.589 839.173V886.424ZM325.589 817.469C325.589 822.992 330.066 827.469 335.589 827.469H368.512C374.035 827.469 378.512 822.992 378.512 817.469V770.218C378.512 764.695 374.035 760.218 368.512 760.218H335.589C330.066 760.218 325.589 764.695 325.589 770.218V817.469ZM325.589 748.514C325.589 754.037 330.066 758.514 335.589 758.514H368.512C374.035 758.514 378.512 754.037 378.512 748.514V701.261C378.512 695.738 374.035 691.261 368.512 691.261H335.589C330.066 691.261 325.589 695.738 325.589 701.261V748.514ZM325.589 679.557C325.589 685.08 330.066 689.557 335.589 689.557H368.512C374.035 689.557 378.512 685.08 378.512 679.557V632.306C378.512 626.783 374.035 622.306 368.512 622.306H335.589C330.066 622.306 325.589 626.783 325.589 632.306V679.557ZM325.589 610.602C325.589 616.125 330.066 620.602 335.589 620.602H368.512C374.035 620.602 378.512 616.125 378.512 610.602V563.349C378.512 557.827 374.035 553.349 368.512 553.349H335.589C330.066 553.349 325.589 557.827 325.589 563.349V610.602ZM325.589 541.646C325.589 547.168 330.066 551.646 335.589 551.646H368.512C374.035 551.646 378.512 547.168 378.512 541.646V494.394C378.512 488.871 374.035 484.394 368.512 484.394H335.589C330.066 484.394 325.589 488.871 325.589 494.394V541.646ZM325.589 472.691C325.589 478.213 330.066 482.691 335.589 482.691H368.512C374.035 482.691 378.512 478.213 378.512 472.691V425.438C378.512 419.915 374.035 415.438 368.512 415.438H335.589C330.066 415.438 325.589 419.915 325.589 425.438V472.691ZM325.589 403.734C325.589 409.257 330.066 413.734 335.589 413.734H368.512C374.035 413.734 378.512 409.257 378.512 403.734V356.482C378.512 350.96 374.035 346.482 368.512 346.482H335.589C330.066 346.482 325.589 350.96 325.589 356.482V403.734ZM325.589 334.779C325.589 340.302 330.066 344.779 335.589 344.779H368.512C374.035 344.779 378.512 340.302 378.512 334.779V287.526C378.512 282.003 374.035 277.526 368.512 277.526H335.589C330.066 277.526 325.589 282.003 325.589 287.526V334.779ZM325.589 265.822C325.589 271.345 330.066 275.822 335.589 275.822H368.512C374.035 275.822 378.512 271.345 378.512 265.822V218.571C378.512 213.048 374.035 208.571 368.512 208.571H335.589C330.066 208.571 325.589 213.048 325.589 218.571V265.822ZM325.589 196.867C325.589 202.39 330.066 206.867 335.589 206.867H368.512C374.035 206.867 378.512 202.39 378.512 196.867V149.616C378.512 144.093 374.035 139.616 368.512 139.616H335.589C330.066 139.616 325.589 144.093 325.589 149.616V196.867ZM325.589 127.912C325.589 133.435 330.066 137.912 335.589 137.912H368.512C374.035 137.912 378.512 133.435 378.512 127.912V80.6588C378.512 75.1359 374.035 70.6588 368.512 70.6588H335.589C330.066 70.6588 325.589 75.1359 325.589 80.6588V127.912ZM314.248 70.6588C319.771 70.6588 324.248 75.1359 324.248 80.6588V127.912C324.248 133.435 319.771 137.912 314.248 137.912H281.325C275.802 137.912 271.325 133.435 271.325 127.912V80.6588C271.325 75.1359 275.802 70.6588 281.325 70.6588H314.248ZM314.248 139.616C319.771 139.616 324.248 144.093 324.248 149.616V196.867C324.248 202.39 319.771 206.867 314.248 206.867H281.325C275.802 206.867 271.325 202.39 271.325 196.867V149.616C271.325 144.093 275.802 139.616 281.325 139.616H314.248ZM314.248 208.571C319.771 208.571 324.248 213.048 324.248 218.571V265.822C324.248 271.345 319.771 275.822 314.248 275.822H281.325C275.802 275.822 271.325 271.345 271.325 265.822V218.571C271.325 213.048 275.802 208.571 281.325 208.571H314.248ZM314.248 277.526C319.771 277.526 324.248 282.003 324.248 287.526V334.779C324.248 340.302 319.771 344.779 314.248 344.779H281.325C275.802 344.779 271.325 340.302 271.325 334.779V287.526C271.325 282.003 275.802 277.526 281.325 277.526H314.248ZM314.248 346.482C319.771 346.482 324.248 350.96 324.248 356.482V403.734C324.248 409.257 319.771 413.734 314.248 413.734H281.325C275.802 413.734 271.325 409.257 271.325 403.734V356.482C271.325 350.96 275.802 346.482 281.325 346.482H314.248ZM314.248 415.438C319.771 415.438 324.248 419.915 324.248 425.438V472.691C324.248 478.213 319.771 482.691 314.248 482.691H281.325C275.802 482.691 271.325 478.213 271.325 472.691V425.438C271.325 419.915 275.802 415.438 281.325 415.438H314.248ZM314.248 484.394C319.771 484.394 324.248 488.871 324.248 494.394V541.646C324.248 547.168 319.771 551.646 314.248 551.646H281.325C275.802 551.646 271.325 547.168 271.325 541.646V494.394C271.325 488.871 275.802 484.394 281.325 484.394H314.248ZM314.248 553.349C319.771 553.349 324.248 557.827 324.248 563.349V610.602C324.248 616.125 319.771 620.602 314.248 620.602H281.325C275.802 620.602 271.325 616.125 271.325 610.602V563.349C271.325 557.827 275.802 553.349 281.325 553.349H314.248ZM314.248 622.306C319.771 622.306 324.248 626.783 324.248 632.306V679.557C324.248 685.08 319.771 689.557 314.248 689.557H281.325C275.802 689.557 271.325 685.08 271.325 679.557V632.306C271.325 626.783 275.802 622.306 281.325 622.306H314.248ZM314.248 691.261C319.771 691.261 324.248 695.738 324.248 701.261V748.514C324.248 754.037 319.771 758.514 314.248 758.514H281.325C275.802 758.514 271.325 754.037 271.325 748.514V701.261C271.325 695.738 275.802 691.261 281.325 691.261H314.248ZM314.248 760.218C319.771 760.218 324.248 764.695 324.248 770.218V817.469C324.248 822.992 319.771 827.469 314.248 827.469H281.325C275.802 827.469 271.325 822.992 271.325 817.469V770.218C271.325 764.695 275.802 760.218 281.325 760.218H314.248ZM314.248 829.173C319.771 829.173 324.248 833.65 324.248 839.173V886.424C324.248 891.947 319.771 896.424 314.248 896.424H281.325C275.802 896.424 271.325 891.947 271.325 886.424V839.173C271.325 833.65 275.802 829.173 281.325 829.173H314.248ZM217.059 886.424C217.059 891.947 221.536 896.424 227.059 896.424H259.984C265.507 896.424 269.984 891.947 269.984 886.424V839.173C269.984 833.65 265.507 829.173 259.984 829.173H227.059C221.536 829.173 217.059 833.65 217.059 839.173V886.424ZM217.059 817.469C217.059 822.992 221.536 827.469 227.059 827.469H259.984C265.507 827.469 269.984 822.992 269.984 817.469V770.218C269.984 764.695 265.507 760.218 259.984 760.218H227.059C221.536 760.218 217.059 764.695 217.059 770.218V817.469ZM217.059 748.514C217.059 754.037 221.536 758.514 227.059 758.514H259.984C265.507 758.514 269.984 754.037 269.984 748.514V701.261C269.984 695.738 265.507 691.261 259.984 691.261H227.059C221.536 691.261 217.059 695.738 217.059 701.261V748.514ZM217.059 679.557C217.059 685.08 221.536 689.557 227.059 689.557H259.984C265.507 689.557 269.984 685.08 269.984 679.557V632.306C269.984 626.783 265.507 622.306 259.984 622.306H227.059C221.536 622.306 217.059 626.783 217.059 632.306V679.557ZM217.059 610.602C217.059 616.125 221.536 620.602 227.059 620.602H259.984C265.507 620.602 269.984 616.125 269.984 610.602V563.349C269.984 557.827 265.507 553.349 259.984 553.349H227.059C221.536 553.349 217.059 557.827 217.059 563.349V610.602ZM217.059 541.646C217.059 547.168 221.536 551.646 227.059 551.646H259.984C265.507 551.646 269.984 547.168 269.984 541.646V494.394C269.984 488.871 265.507 484.394 259.984 484.394H227.059C221.536 484.394 217.059 488.871 217.059 494.394V541.646ZM217.059 472.691C217.059 478.213 221.536 482.691 227.059 482.691H259.984C265.507 482.691 269.984 478.213 269.984 472.691V425.438C269.984 419.915 265.507 415.438 259.984 415.438H227.059C221.536 415.438 217.059 419.915 217.059 425.438V472.691ZM217.059 403.734C217.059 409.257 221.536 413.734 227.059 413.734H259.984C265.507 413.734 269.984 409.257 269.984 403.734V356.482C269.984 350.96 265.507 346.482 259.984 346.482H227.059C221.536 346.482 217.059 350.96 217.059 356.482V403.734ZM217.059 334.779C217.059 340.302 221.536 344.779 227.059 344.779H259.984C265.507 344.779 269.984 340.302 269.984 334.779V287.526C269.984 282.003 265.507 277.526 259.984 277.526H227.059C221.536 277.526 217.059 282.003 217.059 287.526V334.779ZM217.059 265.822C217.059 271.345 221.536 275.822 227.059 275.822H259.984C265.507 275.822 269.984 271.345 269.984 265.822V218.571C269.984 213.048 265.507 208.571 259.984 208.571H227.059C221.536 208.571 217.059 213.048 217.059 218.571V265.822ZM217.059 196.867C217.059 202.39 221.536 206.867 227.059 206.867H259.984C265.507 206.867 269.984 202.39 269.984 196.867V149.616C269.984 144.093 265.507 139.616 259.984 139.616H227.059C221.536 139.616 217.059 144.093 217.059 149.616V196.867ZM217.059 127.912C217.059 133.435 221.536 137.912 227.059 137.912H259.984C265.507 137.912 269.984 133.435 269.984 127.912V80.6588C269.984 75.1359 265.507 70.6588 259.984 70.6588H227.059C221.536 70.6588 217.059 75.1359 217.059 80.6588V127.912ZM205.718 70.6588C211.241 70.6588 215.718 75.1359 215.718 80.6588V127.912C215.718 133.435 211.241 137.912 205.718 137.912H172.795C167.272 137.912 162.795 133.435 162.795 127.912V80.6588C162.795 75.1359 167.272 70.6588 172.795 70.6588H205.718ZM205.718 139.616C211.241 139.616 215.718 144.093 215.718 149.616V196.867C215.718 202.39 211.241 206.867 205.718 206.867H172.795C167.272 206.867 162.795 202.39 162.795 196.867V149.616C162.795 144.093 167.272 139.616 172.795 139.616H205.718ZM205.718 208.571C211.241 208.571 215.718 213.048 215.718 218.571V265.822C215.718 271.345 211.241 275.822 205.718 275.822H172.795C167.272 275.822 162.795 271.345 162.795 265.822V218.571C162.795 213.048 167.272 208.571 172.795 208.571H205.718ZM205.718 277.526C211.241 277.526 215.718 282.003 215.718 287.526V334.779C215.718 340.302 211.241 344.779 205.718 344.779H172.795C167.272 344.779 162.795 340.302 162.795 334.779V287.526C162.795 282.003 167.272 277.526 172.795 277.526H205.718ZM205.718 346.482C211.241 346.482 215.718 350.96 215.718 356.482V403.734C215.718 409.257 211.241 413.734 205.718 413.734H172.795C167.272 413.734 162.795 409.257 162.795 403.734V356.482C162.795 350.96 167.272 346.482 172.795 346.482H205.718ZM205.718 415.438C211.241 415.438 215.718 419.915 215.718 425.438V472.691C215.718 478.213 211.241 482.691 205.718 482.691H172.795C167.272 482.691 162.795 478.213 162.795 472.691V425.438C162.795 419.915 167.272 415.438 172.795 415.438H205.718ZM205.718 484.394C211.241 484.394 215.718 488.871 215.718 494.394V541.646C215.718 547.168 211.241 551.646 205.718 551.646H172.795C167.272 551.646 162.795 547.168 162.795 541.646V494.394C162.795 488.871 167.272 484.394 172.795 484.394H205.718ZM205.718 553.349C211.241 553.349 215.718 557.827 215.718 563.349V610.602C215.718 616.125 211.241 620.602 205.718 620.602H172.795C167.272 620.602 162.795 616.125 162.795 610.602V563.349C162.795 557.827 167.272 553.349 172.795 553.349H205.718ZM205.718 622.306C211.241 622.306 215.718 626.783 215.718 632.306V679.557C215.718 685.08 211.241 689.557 205.718 689.557H172.795C167.272 689.557 162.795 685.08 162.795 679.557V632.306C162.795 626.783 167.272 622.306 172.795 622.306H205.718ZM205.718 691.261C211.241 691.261 215.718 695.738 215.718 701.261V748.514C215.718 754.037 211.241 758.514 205.718 758.514H172.795C167.272 758.514 162.795 754.037 162.795 748.514V701.261C162.795 695.738 167.272 691.261 172.795 691.261H205.718ZM205.718 760.218C211.241 760.218 215.718 764.695 215.718 770.218V817.469C215.718 822.992 211.241 827.469 205.718 827.469H172.795C167.272 827.469 162.795 822.992 162.795 817.469V770.218C162.795 764.695 167.272 760.218 172.795 760.218H205.718ZM205.718 829.173C211.241 829.173 215.718 833.65 215.718 839.173V886.424C215.718 891.947 211.241 896.424 205.718 896.424H172.795C167.272 896.424 162.795 891.947 162.795 886.424V839.173C162.795 833.65 167.272 829.173 172.795 829.173H205.718ZM108.53 886.424C108.53 891.947 113.007 896.424 118.53 896.424H151.454C156.977 896.424 161.454 891.947 161.454 886.424V839.173C161.454 833.65 156.977 829.173 151.454 829.173H118.53C113.007 829.173 108.53 833.65 108.53 839.173V886.424ZM108.53 817.469C108.53 822.992 113.007 827.469 118.53 827.469H151.454C156.977 827.469 161.454 822.992 161.454 817.469V770.218C161.454 764.695 156.977 760.218 151.454 760.218H118.53C113.007 760.218 108.53 764.695 108.53 770.218V817.469ZM108.53 748.514C108.53 754.037 113.007 758.514 118.53 758.514H151.454C156.977 758.514 161.454 754.037 161.454 748.514V701.261C161.454 695.738 156.977 691.261 151.454 691.261H118.53C113.007 691.261 108.53 695.738 108.53 701.261V748.514ZM108.53 679.557C108.53 685.08 113.007 689.557 118.53 689.557H151.454C156.977 689.557 161.454 685.08 161.454 679.557V632.306C161.454 626.783 156.977 622.306 151.454 622.306H118.53C113.007 622.306 108.53 626.783 108.53 632.306V679.557ZM108.53 610.602C108.53 616.125 113.007 620.602 118.53 620.602H151.454C156.977 620.602 161.454 616.125 161.454 610.602V563.349C161.454 557.827 156.977 553.349 151.454 553.349H118.53C113.007 553.349 108.53 557.827 108.53 563.349V610.602ZM108.53 541.646C108.53 547.168 113.007 551.646 118.53 551.646H151.454C156.977 551.646 161.454 547.168 161.454 541.646V494.394C161.454 488.871 156.977 484.394 151.454 484.394H118.53C113.007 484.394 108.53 488.871 108.53 494.394V541.646ZM108.53 472.691C108.53 478.213 113.007 482.691 118.53 482.691H151.454C156.977 482.691 161.454 478.213 161.454 472.691V425.438C161.454 419.915 156.977 415.438 151.454 415.438H118.53C113.007 415.438 108.53 419.915 108.53 425.438V472.691ZM108.53 403.734C108.53 409.257 113.007 413.734 118.53 413.734H151.454C156.977 413.734 161.454 409.257 161.454 403.734V356.482C161.454 350.96 156.977 346.482 151.454 346.482H118.53C113.007 346.482 108.53 350.96 108.53 356.482V403.734ZM108.53 334.779C108.53 340.302 113.007 344.779 118.53 344.779H151.454C156.977 344.779 161.454 340.302 161.454 334.779V287.526C161.454 282.003 156.977 277.526 151.454 277.526H118.53C113.007 277.526 108.53 282.003 108.53 287.526V334.779ZM108.53 265.822C108.53 271.345 113.007 275.822 118.53 275.822H151.454C156.977 275.822 161.454 271.345 161.454 265.822V218.571C161.454 213.048 156.977 208.571 151.454 208.571H118.53C113.007 208.571 108.53 213.048 108.53 218.571V265.822ZM108.53 196.867C108.53 202.39 113.007 206.867 118.53 206.867H151.454C156.977 206.867 161.454 202.39 161.454 196.867V149.616C161.454 144.093 156.977 139.616 151.454 139.616H118.53C113.007 139.616 108.53 144.093 108.53 149.616V196.867ZM108.53 127.912C108.53 133.435 113.007 137.912 118.53 137.912H151.454C156.977 137.912 161.454 133.435 161.454 127.912V80.6588C161.454 75.1359 156.977 70.6588 151.454 70.6588H118.53C113.007 70.6588 108.53 75.1359 108.53 80.6588V127.912ZM97.1888 70.6588C102.712 70.6588 107.189 75.1359 107.189 80.6588V127.912C107.189 133.435 102.712 137.912 97.1888 137.912H64.2615C58.7386 137.912 54.2615 133.435 54.2615 127.912V80.6588C54.2615 75.1359 58.7386 70.6588 64.2615 70.6588H97.1888ZM97.1888 139.616C102.712 139.616 107.189 144.093 107.189 149.616V196.867C107.189 202.39 102.712 206.867 97.1888 206.867H64.2615C58.7386 206.867 54.2615 202.39 54.2615 196.867V149.616C54.2615 144.093 58.7386 139.616 64.2615 139.616H97.1888ZM97.1888 208.571C102.712 208.571 107.189 213.048 107.189 218.571V265.822C107.189 271.345 102.712 275.822 97.1888 275.822H64.2615C58.7386 275.822 54.2615 271.345 54.2615 265.822V218.571C54.2615 213.048 58.7386 208.571 64.2615 208.571H97.1888ZM97.1888 277.526C102.712 277.526 107.189 282.003 107.189 287.526V334.779C107.189 340.302 102.712 344.779 97.1888 344.779H64.2615C58.7386 344.779 54.2615 340.302 54.2615 334.779V287.526C54.2615 282.003 58.7386 277.526 64.2615 277.526H97.1888ZM97.1888 346.482C102.712 346.482 107.189 350.96 107.189 356.482V403.734C107.189 409.257 102.712 413.734 97.1888 413.734H64.2615C58.7386 413.734 54.2615 409.257 54.2615 403.734V356.482C54.2615 350.96 58.7386 346.482 64.2615 346.482H97.1888ZM97.1888 415.438C102.712 415.438 107.189 419.915 107.189 425.438V472.691C107.189 478.213 102.712 482.691 97.1888 482.691H64.2615C58.7386 482.691 54.2615 478.213 54.2615 472.691V425.438C54.2615 419.915 58.7386 415.438 64.2615 415.438H97.1888ZM97.1888 484.394C102.712 484.394 107.189 488.871 107.189 494.394V541.646C107.189 547.168 102.712 551.646 97.1888 551.646H64.2615C58.7386 551.646 54.2615 547.168 54.2615 541.646V494.394C54.2615 488.871 58.7386 484.394 64.2615 484.394H97.1888ZM97.1888 553.349C102.712 553.349 107.189 557.827 107.189 563.349V610.602C107.189 616.125 102.712 620.602 97.1888 620.602H64.2615C58.7386 620.602 54.2615 616.125 54.2615 610.602V563.349C54.2615 557.827 58.7386 553.349 64.2615 553.349H97.1888ZM97.1888 622.306C102.712 622.306 107.189 626.783 107.189 632.306V679.557C107.189 685.08 102.712 689.557 97.1888 689.557H64.2615C58.7386 689.557 54.2615 685.08 54.2615 679.557V632.306C54.2615 626.783 58.7386 622.306 64.2615 622.306H97.1888ZM97.1888 691.261C102.712 691.261 107.189 695.738 107.189 701.261V748.514C107.189 754.037 102.712 758.514 97.1888 758.514H64.2615C58.7386 758.514 54.2615 754.037 54.2615 748.514V701.261C54.2615 695.738 58.7386 691.261 64.2615 691.261H97.1888ZM97.1888 760.218C102.712 760.218 107.189 764.695 107.189 770.218V817.469C107.189 822.992 102.712 827.469 97.1888 827.469H64.2615C58.7386 827.469 54.2615 822.992 54.2615 817.469V770.218C54.2615 764.695 58.7386 760.218 64.2615 760.218H97.1888ZM97.1888 829.173C102.712 829.173 107.189 833.65 107.189 839.173V886.424C107.189 891.947 102.712 896.424 97.1888 896.424H64.2615C58.7386 896.424 54.2615 891.947 54.2615 886.424V839.173C54.2615 833.65 58.7386 829.173 64.2615 829.173H97.1888Z" fill="url(#paint0_radial_23_4)" fill-opacity="0.22"/>
    <defs>
        <radialGradient id="paint0_radial_23_4" cx="0" cy="0" r="1" gradientUnits="userSpaceOnUse" gradientTransform="translate(29.9476 51.7981) rotate(32.4993) scale(1733.26 6411.77)">
            <stop stop-color="#EE382A"/>
            <stop offset="0.5" stop-color="#EE382A" stop-opacity="0"/>
            <stop offset="1" stop-color="#EE382A"/>
        </radialGradient>
    </defs>
</svg>
